<?xml version="1.0" encoding="utf-8"?>
<!-- Generator: Adobe Illustrator 22.1.0, SVG Export Plug-In . SVG Version: 6.00 Build 0)  -->
<svg version="1.1" id="Calque_1" xmlns="http://www.w3.org/2000/svg" xmlns:xlink="http://www.w3.org/1999/xlink" x="0px" y="0px"
	 viewBox="0 0 1190.6 841.9" style="enable-background:new 0 0 1190.6 841.9;" xml:space="preserve">
<style type="text/css">
	.st0{fill:#AF9F87;}
	.st1{fill:#FFB646;}
	.st2{fill:#FFE781;}
	.st3{fill:#9AB5B1;}
	.st4{fill:#BAD8D3;}
	.st5{fill:#FCFBDB;}
	.st6{fill:#F3E4D2;}
	.st7{fill:#128784;}
	.st8{fill:#32B2B1;}
	.st9{fill:#D7AB68;}
	.st10{fill:#0D5E5A;}
	.st11{fill:#EBFFFF;}
	.st12{fill:#727475;}
	.st13{fill:#515556;}
	.st14{fill:#181919;}
	.st15{fill:#FCFCFC;}
	.st16{fill:#777574;}
</style>
<path class="st0" d="M366,432.8c0,0-19.6,7.5-172.7-13.6l-10.6-0.3c0,0-30.6,23.3-72.1,35.1c0,0-3.4-0.1-4.9-2.3
	c0,0,50.8-22.1,66.5-38.1c0,0-39.2-15.3-58.2-17.2l4.8-5.1c0,0,20.4,1.4,35.4,4.1c0,0,155.4,31.6,190.9,26.3c0,0,73.8-3,172.5,2.5
	c5.8,0.3,17.9,9.9,7.6,11.9C518.5,437.2,408.1,426.1,366,432.8z"/>
<path class="st0" d="M156.4,432.6c0,0-1,16.2-19.9,36c0,0,0.9,1.6,7.5,0.2c0,0,21.5-28.8,24-43.4L156.4,432.6z"/>
<ellipse transform="matrix(2.605566e-02 -0.9997 0.9997 2.605566e-02 -275.0335 486.7697)" class="st1" cx="112.3" cy="384.5" rx="7.2" ry="7.2"/>
<ellipse transform="matrix(2.605566e-02 -0.9997 0.9997 2.605566e-02 -266.2426 499.6868)" class="st1" cx="123.3" cy="386.5" rx="6.8" ry="6.1"/>
<circle class="st1" cx="124.9" cy="398.8" r="7.3"/>
<circle class="st1" cx="103.4" cy="394.3" r="7.4"/>
<circle class="st1" cx="112.7" cy="402.5" r="7"/>
<ellipse transform="matrix(0.6026 -0.798 0.798 0.6026 -318.1531 297.5457)" class="st1" cx="139.7" cy="468.2" rx="8.6" ry="8.6"/>
<ellipse transform="matrix(0.6026 -0.798 0.798 0.6026 -321.5362 308.045)" class="st1" cx="148.5" cy="476.9" rx="8.2" ry="7.3"/>
<circle class="st1" cx="141.4" cy="490" r="8.8"/>
<circle class="st1" cx="124.3" cy="471.5" r="8.9"/>
<circle class="st1" cx="127.6" cy="486" r="8.4"/>
<circle class="st2" cx="117.1" cy="393.1" r="6.2"/>
<circle class="st2" cx="136.4" cy="479.3" r="8.1"/>
<ellipse transform="matrix(2.605566e-02 -0.9997 0.9997 2.605566e-02 -164.2272 607.0807)" class="st3" cx="229.4" cy="387.8" rx="39.2" ry="90.9"/>
<path class="st3" d="M268.9,422.3c0,0,21.6,6.2,42-3.1c0,0,13.3-8.5,6.5-25.8C317.4,393.5,317.3,416.7,268.9,422.3z"/>
<path class="st3" d="M143.1,377.2c0,0-10.5,7.5-11.4,14.4c0,0-0.7,1.3,1.4,1.7c0,0-0.3-5.3,11.4-13.9L143.1,377.2z"/>
<path class="st3" d="M143.2,375.9c0,0-1.9-6.3,9.5-13.2c0,0,1.9-1.7,3.5-7.6c0,0,1.6-1.5,2.3,0.1c0,0-1.1,9-3.7,11.1L143.2,375.9z"
	/>
<path class="st3" d="M160.1,363.6c0,0,4.9-16.7,19.3-9.5L160.1,363.6z"/>
<path class="st3" d="M182.2,352.5c0,0,5.6-8.9,11.9-1.6L182.2,352.5z"/>
<path class="st4" d="M150.4,384.4c0,0,1,6.8,12.7,15.6C163.1,400,145.7,394.4,150.4,384.4z"/>
<path class="st4" d="M180.9,400.5c0,0,22.5,6.7,54.1,8C235.1,408.4,201.2,415,180.9,400.5z"/>
<path class="st4" d="M231.5,420.3c0,0,36.3,0.7,56-8.5C287.5,411.8,273.7,426.5,231.5,420.3z"/>
<path class="st4" d="M202.7,401c0,0-38.5-6.2-42.7-23.4c0,0-1.1-2.6,1.2-2.8c0,0,1.6,0,2.5,2.9C163.7,377.7,170.3,393.6,202.7,401z"
	/>
<path class="st4" d="M202.4,412.7c0,0,45.8,5.9,69.1-1.4C271.5,411.4,256.2,424,202.4,412.7z"/>
<path class="st4" d="M216.2,421c0,0-38.6-2.8-55.8-17.8C160.5,403.2,166.7,421.2,216.2,421z"/>
<path class="st4" d="M252.7,405.6c0,0,39.8-6.5,48.2-17.2c0,0,2.6,6.9-5,10.6C296,399,288.1,406.5,252.7,405.6z"/>
<path class="st4" d="M282.5,421.4c0,0,24.7-3.6,32.7-14.1C315.2,407.2,310.9,423.4,282.5,421.4z"/>
<path class="st4" d="M155.5,378.5c0,0-0.6,5.1,9.9,12.7C165.4,391.1,156.5,392.8,155.5,378.5z"/>
<path class="st4" d="M149.4,395.2c0,0,6.2,13.5,15.4,16.3C164.9,411.5,152.7,413.1,149.4,395.2z"/>
<path class="st4" d="M300.7,378.5c0,0,13.5,7.5,10.7,20.9C311.4,399.4,320.2,385.1,300.7,378.5z"/>
<path class="st4" d="M192.3,368.4c0,0,60.2-2.4,74.8,1.9l-3.2-5.2c0,0-56.6-5-74.3,0.6L192.3,368.4z"/>
<path class="st4" d="M189.7,361.1c1.4,0,14.4-2.9,35.6-1.2c0,0-24-4.4-35.5-2.6L189.7,361.1z"/>
<path class="st4" d="M276.7,364.5c0,0-16.8-4.6-28.8-4c0,0,21.9-1.1,27.5,0.6L276.7,364.5z"/>
<path class="st4" d="M160,366.4c0,0,11.3-10.4,19.3-10l-4.6,6.4C174.7,362.8,168.7,362.2,160,366.4z"/>
<path class="st5" d="M166,377.3c0,0,11.5,14.4,35.5,17.8c0,0,12.6-16-1.9-34.1c0,0-17.5-22.6-30.6-0.8
	C168.9,360.2,165,367.6,166,377.3z"/>
<path class="st5" d="M208.3,397.4c0,0-6.1-19.2,7.5-34.8c0,0,14-14.9,24.9,4.4c0,0,9.5,20.9,1.6,33.5
	C242.2,400.5,224,404.7,208.3,397.4z"/>
<path class="st5" d="M251.6,399.8c0,0-11.8-15.6,3.7-32.7c0,0,18-18.6,27.2-2.1c0,0,6.8,13.3,1.7,28.8
	C284.3,393.8,266.6,401.1,251.6,399.8z"/>
<path class="st0" d="M307.1,425.4c0,0,19.9,22.6,45.9,37.1c0,0,3.9,1.8,6.1-3.2c0,0-30.6-16.1-35.4-34H307.1z"/>
<ellipse transform="matrix(0.4114 -0.9115 0.9115 0.4114 -223.7665 548.2007)" class="st1" cx="312.6" cy="447.4" rx="6.2" ry="6.2"/>
<ellipse transform="matrix(0.4114 -0.9115 0.9115 0.4114 -223.9835 538.5397)" class="st1" cx="305" cy="442.7" rx="5.9" ry="5.2"/>
<circle class="st1" cx="307.9" cy="432.3" r="6.3"/>
<circle class="st1" cx="322.9" cy="442.6" r="6.4"/>
<circle class="st1" cx="318.2" cy="432.9" r="6"/>
<ellipse transform="matrix(0.6596 -0.7516 0.7516 0.6596 -224.5524 427.9618)" class="st1" cx="360.2" cy="461.9" rx="7.2" ry="7.2"/>
<ellipse transform="matrix(0.6596 -0.7516 0.7516 0.6596 -232.3093 424.479)" class="st1" cx="352.5" cy="468.7" rx="6.1" ry="6.8"/>
<circle class="st1" cx="342" cy="462" r="7.3"/>
<circle class="st1" cx="358.4" cy="448.9" r="7.4"/>
<circle class="st1" cx="346.2" cy="450.8" r="7"/>
<circle class="st2" cx="351" cy="458.3" r="7.5"/>
<circle class="st2" cx="313.1" cy="438.4" r="5.4"/>
<g>
	<g>
		<path class="st0" d="M450.1,546.3c-4.1-2.9-6.7-6.9-7.8-11.9c-1.1-5-1.3-10.5-0.4-16.2c0.5-3.5,1.3-7.2,2.3-10.9
			c1-3.8,2.2-7.3,3.5-10.8c1.3-3.4,2.6-6.7,4-9.7c1.4-3.1,2.7-5.7,3.9-8c4.3-7.5,9.7-14.6,16.2-21.2c6.5-6.6,14.4-12.2,23.7-16.6
			l-0.5,0.2c2.3-1.6,4-1.6,5.3,0c0.9-1.7,1.7-3.4,2.7-5.1c0.9-1.7,1.8-3.2,2.7-4.7c-7.7-1.2-15.2-3.4-22.5-6.8
			c-7.3-3.3-13.5-7.4-18.7-12.2c-1.2-1.3-1.4-2.4-0.6-3.2c2.5-2.3,4.7-2.6,6.8-1.1c5,4.8,11,8.8,17.9,11.9
			c6.9,3.1,13.9,5.2,21.1,6.3c1.4-1.8,3.2-3.7,5.3-5.7c2.1-2,4.5-3.8,7.1-5.4s5.2-2.9,7.9-4c2.7-1.1,5.3-1.6,7.9-1.6
			c3.1,0,5.6,0.5,7.4,1.6c1.4,1,2.4,2,3,3.2c0.6,1.2,0.8,2.4,0.6,3.5c-0.3,2.4-1.9,4.7-4.7,6.9c-2.8,2-6,3.6-9.6,4.8
			c-3.6,1.2-7.4,2-11.3,2.6c-4.5,6.8-8.5,14.6-12.1,23.4c-3.5,8.8-6.8,17.6-9.6,26.1c8.7-10.1,16.9-19,24.7-26.8
			c7.8-7.8,14.9-13.7,21.3-17.8c2.5-1.6,5-2.9,7.5-3.9c2.5-1,4.9-1.4,7.2-1.4c3.1,0,5.7,0.9,7.6,2.7c2,1.8,3.1,4.7,3.5,8.9h-0.2
			c0.3,2.9,0.2,6.3-0.3,10.3c-0.9,6.1-2.7,13.9-5.5,23.2c-2.8,9.4-6.8,20.8-12,34.2c-3.2,8-5.7,14.9-7.3,20.5
			c-1.7,5.6-2.8,10.3-3.3,13.9c-0.1,0.9-0.2,1.7-0.2,2.6c-0.1,0.9,0,1.7,0.1,2.6c0,1-0.3,1.7-0.8,2.3c0.5-0.2,1.4-0.7,2.7-1.5
			c1.3-0.8,2.7-2,4.2-3.5c2.8-2.6,5.8-5.8,9.2-9.7c3.3-3.9,6.7-8,10.1-12.5c3.4-4.4,6.7-9,9.9-13.8c3.2-4.7,6.1-9.2,8.5-13.3
			c0.5-1,1.2-1.5,2.1-1.7c0.9-0.2,2.2-0.1,4,0.2c1,0.5,1.6,1,1.8,1.4c0.3,0.4,0.3,0.8,0.1,1.4c-2.5,4.2-5.4,8.7-8.7,13.6
			c-3.3,4.9-6.8,9.7-10.4,14.4c-3.6,4.7-7.2,9.2-10.8,13.3c-3.6,4.2-7,7.7-10.2,10.5c-2,1.8-3.9,3.3-5.6,4.3
			c-1.7,1.1-3.5,1.8-5.3,2.3c-0.2,0.2-0.5,0.3-0.7,0.2c-0.3-0.1-0.6-0.1-1-0.1c-2.8,0.9-5.1,1.3-6.9,1.3c-6,0-9.2-3.1-9.5-9.2
			c-0.1-0.8-0.1-1.6,0-2.6c0.1-1,0.3-1.9,0.5-2.9c0.5-3.6,1.7-8.3,3.5-14.1c1.8-5.7,4.3-12.8,7.5-21.3c0.1-0.4,0.6-1.7,1.4-3.8
			s1.8-4.7,2.9-7.8c1.1-3.1,2.4-6.6,3.7-10.5c1.3-3.9,2.6-7.9,3.9-12.1c1.2-4.1,2.3-8.2,3.3-12.3c1-4.1,1.7-7.8,2.3-11.3
			c0.5-3.6,0.8-6.6,0.7-8.9c-0.1-2.3-0.5-3.5-1.4-3.5c-0.4,0-1.5,0.6-3.2,1.8c-3.5,2.3-7.5,5.3-11.8,9.2c-4.3,3.9-9,8.5-14,13.8
			c-5,5.3-10.2,11.1-15.6,17.5c-5.4,6.4-10.9,13.1-16.5,20.2l0.5-0.5c-2.9,8-5.8,15.4-8.7,22.2c-2.9,6.8-6.2,12.4-9.8,16.9
			c-2.1,2.5-4.8,4.5-7.9,6c-3.1,1.6-6.2,2.3-9.3,2.3C455.2,549.1,452.4,548.1,450.1,546.3z M481.5,488.9c2.5-7.4,5-14.7,7.7-22
			c2.7-7.2,5.5-14.2,8.5-20.8c-7.5,3.8-14.2,8.7-19.9,15c-5.8,6.2-10.7,12.9-14.6,19.9h0.2c-0.9,1.5-1.9,3.6-3.1,6.3
			c-1.2,2.7-2.4,5.7-3.6,9.1c-1.2,3.4-2.4,7-3.5,10.9c-1.1,3.9-1.9,7.6-2.4,11.3c-0.8,5.1-0.8,9.8-0.2,14.1c0.6,4.2,2.3,7.3,5.1,9.2
			c1,0.8,2.1,0.4,3.5-1.1c1.3-1.5,2.8-3.7,4.3-6.5c1.6-2.8,3.1-6.2,4.7-10c1.6-3.8,3.2-7.7,4.7-11.6c1.5-3.9,2.9-7.6,4.2-11.2
			s2.4-6.5,3.2-8.8c0.2-0.6,0.4-1.3,0.6-1.9C481.1,490,481.3,489.4,481.5,488.9z M533.5,420.1c-1.1,0.9-2.1,1.7-3.2,2.7
			c-1.1,0.9-2.1,2-3.1,3.1c4.3-1,8.2-2.7,11.7-5.3v0.2c0.9-0.7,1.4-1.7,1.7-2.7c0.3-1.1,0-1.6-0.9-1.6c-0.4,0-1.1,0.2-2.1,0.7
			S535.3,418.6,533.5,420.1z"/>
		<path class="st0" d="M620.3,523c2.9-3.5,5.6-7.4,8-11.5c2.5-4.1,4.8-8,6.9-11.5c0.5-0.9,1.4-1.4,2.6-1.7c1.2-0.3,2.5-0.2,4,0.1
			c1.2,1.3,1.6,2.3,1.3,3.1c-2.3,4-4.7,8.2-7.5,12.6c-2.7,4.5-5.7,8.5-8.8,12.1c-2.1,2.8-5,5.6-8.4,8.4c-3.5,2.8-7.3,5.1-11.5,6.7
			c-1.2,0.5-2.5,0.9-3.9,1.1c-1.4,0.2-2.8,0.3-4.1,0.3c-5,0-9.1-1.5-12.1-4.6s-4.9-6.8-5.5-11.2c-0.3-1.7-0.5-3.4-0.6-5.1
			c-0.1-1.7,0-3.3,0.2-4.9c0.5-4.2,1.8-8.4,3.7-12.6c1.9-4.2,4.3-8.3,7.1-12.1c2.8-3.8,5.9-7.2,9.3-10.3c3.4-3.1,7-5.4,10.8-7
			c1.5-0.6,3-1.1,4.5-1.4c1.5-0.3,2.9-0.4,4.3-0.4c4.1,0,7.2,1.1,9.4,3.2c2.2,2.1,3,5,2.5,8.5c-0.1,1-0.4,2-0.8,3.2
			c-0.4,1.2-1,2.5-1.8,4c-2.1,3.6-5.5,7-10,10.1c-4.5,3.1-10.9,5.1-19.3,6c-0.5,1.2-1,2.6-1.4,4.3c-0.4,1.7-0.8,3.4-1,5.2
			c-0.5,3.2-0.6,6.3-0.1,9.2c0.5,3,1.6,5.1,3.5,6.4c1.5,0.8,2.6,1.1,3.2,1.1c1.3,0,2.6-0.4,4-1.2c1.4-0.8,2.8-1.8,4.2-2.9
			c1.4-1.1,2.7-2.4,4-3.7c1.3-1.3,2.4-2.6,3.4-3.8H620.3z M599.2,503.1c0.7-0.1,1.5-0.2,2.2-0.2c0.7-0.1,1.4-0.2,2-0.4
			c-0.2,0.5-0.4,1-0.6,1.4c-0.2,0.4-0.4,0.8-0.5,1.1L599.2,503.1z M622.2,480.4c-1.6,0.5-3.3,1.6-5.1,3.3c-1.8,1.7-3.5,3.5-5.1,5.6
			c-1.7,2.1-3.2,4.3-4.7,6.7c-1.5,2.4-2.8,4.5-3.9,6.4c4.9-1,9-2.6,12.1-5c3.1-2.4,5.4-4.8,6.8-7.4c0.4-0.7,0.8-1.5,1-2.3
			c0.3-0.8,0.5-1.6,0.6-2.5c0.2-1.2,0.2-2.3-0.2-3.2S622.9,480.5,622.2,480.4z"/>
		<path class="st0" d="M663.7,489.4c-0.2,0.3-0.8,0.5-1.6,0.6c-0.9,0.1-1.7,0-2.7-0.2c-0.9-0.2-1.7-0.5-2.5-0.8
			c-0.8-0.3-1.1-0.6-1.1-1c1-2.5,1.5-4.6,1.5-6.4c0.1-1.8-0.5-2.7-1.5-2.7c-0.6,0-1.9,0.8-3.7,2.3l0.3-0.2c-2.1,2.5-3.4,5.1-3.7,7.9
			c-0.2,1.8-0.2,3.7,0.2,5.5c0.3,1.9,0.7,3.7,1.3,5.4l2.4,6.4v-0.2l2.3,6c2.6-1.6,5-3.3,7.3-5.1c2.3-1.8,4.2-3.8,5.7-6
			c0.4-0.6,1.2-1,2.2-1.2c1-0.2,2-0.2,3.1-0.1c1,0.1,1.9,0.3,2.7,0.6c0.7,0.3,1.1,0.6,1.1,0.9c-2.7,3.8-5.9,7.1-9.7,9.9
			c-3.8,2.8-7.4,5.2-10.7,7.2c0.4,4.1,0.4,8,0,11.9c-0.6,4.7-2.4,9.1-5.2,13c-2.8,4-7.2,6.9-13.1,8.8c-1,0.2-1.9,0.4-2.8,0.6
			c-0.9,0.2-2,0.2-3.1,0.2c-2.5,0-4.7-0.6-6.7-1.8c-2-1.2-3.1-3.2-3.3-6c-0.1-1.9,0.4-3.9,1.6-6c1.2-2,2.7-4,4.4-6
			c1.8-2,3.7-3.9,5.9-5.6c2.1-1.8,4.1-3.4,6-4.9l1.3-1c-0.3-1.8-0.9-3.8-1.6-5.8c-0.8-2-1.4-3.9-2.1-5.5c-0.8-1.7-1.5-3.5-2.2-5.2
			c-0.7-1.8-1.2-3.1-1.4-4.1h0.2c-1-3.8-1.4-7.3-1.3-10.5c0.1-3.3,0.9-6.2,2.3-8.7c1.4-2.5,3.5-4.6,6.2-6.3
			c2.7-1.7,6.1-2.8,10.2-3.3c5.3-0.5,9,0.4,11.2,2.8c2.2,2.4,3,5.4,2.5,9.1c-0.1,0.8-0.3,1.6-0.6,2.5
			C664.5,487.5,664.2,488.4,663.7,489.4z M631.4,545.4c2.8-1.4,5-3.6,6.7-6.5c1.7-2.9,2.8-6,3.3-9.1c-1.5,1.2-3,2.5-4.4,3.9
			c-1.4,1.4-2.7,2.8-3.8,4.2c-1.1,1.4-1.8,2.7-2.3,4c-0.5,1.3-0.5,2.4,0.1,3.4c0,0.2,0.2,0.3,0.6,0.2H631.4z M646.7,525.6
			c-0.6,0.4-1.4,1-2.4,1.8c-1,0.8-1.9,1.6-2.9,2.4c0.2-0.9,0.3-1.7,0.3-2.6c0-0.9,0-1.7,0-2.6L646.7,525.6z"/>
		<path class="st0" d="M658.1,465.7c-0.2,0.3-0.7,0.5-1.5,0.5c-0.8,0-1.7-0.1-2.7-0.3c-1-0.2-1.8-0.5-2.5-0.9c-0.7-0.4-1-0.7-1-1
			c1.1-2.3,2.7-4.1,4.8-5.7c2.1-1.5,4.7-2.8,7.8-3.7c3.1-0.9,6.4-1.7,10.1-2.2c3.7-0.5,7.6-0.9,11.7-1.1c2.5-6.6,4.6-12.2,6.5-16.8
			c1.9-4.6,3.2-7.5,3.9-8.9c0.6-1.1,1.9-1.7,3.8-1.8c1.9-0.1,3.7,0.2,5.5,1c1.8,0.8,3.2,2,4.3,3.7c1.1,1.7,1.3,3.6,0.6,5.9
			c-0.5,1.6-1.4,3.9-2.7,7c-1.2,3.1-2.4,5.8-3.6,8.3l-0.6,1.4c1.2,0,2.5,0,3.9,0.1c1.4,0.1,3,0.1,4.6,0.1c2.1,0,4.3,0,6.5-0.1
			c2.2-0.1,4.2-0.2,6.1-0.3c1.9-0.2,3.5-0.3,4.7-0.6c1.3-0.2,2.1-0.5,2.4-1c1-2,3.2-2.3,6.8-0.6c0.6,0.5,1,1,1,1.4
			c0.1,0.4-0.3,1-1,1.7l0.5-0.2c-0.8,1-2,1.9-3.9,2.5c-1.8,0.6-3.9,1.1-6.4,1.5c-2.4,0.4-5,0.6-7.9,0.7c-2.8,0.1-5.6,0.2-8.3,0.2
			c-1.7,0-3.4,0-5-0.1c-1.6-0.1-3.1-0.1-4.5-0.1h-1.9l-1,2.4c-1.5,3.9-3.2,8.3-5,13.3c-1.8,5-3.6,10.3-5.3,15.7
			c-1.7,5.4-3.3,10.8-4.7,16.2c-1.4,5.4-2.5,10.4-3.1,15c-0.9,5-1,9.3-0.5,12.9c0.2,1.2,0.4,2.1,0.5,2.8c0.1,0.7,0.3,1,0.6,1
			c1.5-0.4,3.2-1.4,5.1-2.9c1.9-1.5,3.9-3.3,6-5.5c2.1-2.1,4.2-4.5,6.3-7.1c2.1-2.6,4-5.1,5.9-7.7c1.8-2.6,3.5-5,5.1-7.3
			c1.6-2.3,2.8-4.3,3.8-5.9c0.6-1.2,1.7-2,3.1-2.3c1.4-0.4,2.6,0,3.5,1.2c1.3,0.6,1.8,1.4,1.6,2.3c-1,1.8-2.3,4-3.9,6.4
			c-1.6,2.5-3.5,5.1-5.5,7.9c-2.1,2.8-4.3,5.6-6.7,8.4c-2.4,2.8-4.7,5.4-7.1,7.7c-1.3,1.3-2.8,2.6-4.4,3.9c-1.7,1.3-3.5,2.6-5.5,3.7
			c-2,1.1-4.1,2.1-6.3,2.8c-2.2,0.8-4.4,1.1-6.5,1.1c-3,0-5.6-0.8-7.9-2.4c-2.4-2-3.9-5-4.5-8.8c-0.6-3.9-0.7-8.3-0.2-13.3
			c0.6-4.3,1.6-8.9,2.9-13.8c1.3-4.9,2.7-9.8,4.3-14.7c1.6-4.9,3.1-9.6,4.7-14.1c1.6-4.5,3.1-8.5,4.3-12.1l2.6-6.6
			c-6.2,0.4-11.5,1.2-15.8,2.4C662.4,460.3,659.5,462.5,658.1,465.7z"/>
		<path class="st0" d="M720.3,502.1c-1.7,2.4-3.7,2.7-6,1c-0.5-0.4-1-1-1.3-1.7c-0.3-0.7-0.2-1.3,0.3-1.8c1-1.4,2-3.1,3-5.1
			c1-2,2-4.2,2.8-6.4c0.9-2.3,1.6-4.5,2.3-6.7c0.7-2.2,1.3-4.3,1.7-6.2c-1.5-0.6-3.1-1.4-4.7-2.4c-1.7-1-3.2-2.1-4.5-3.3
			c-1.3-1.2-2.4-2.5-3.1-3.9c-0.7-1.4-0.9-2.8-0.6-4.3c0.5-2.4,1.9-4.1,4-5.3c2.1-1.2,4.4-1.8,6.9-1.8c2.6,0,4.6,0.5,6.1,1.4
			c1.6,1.5,2.9,3.5,4,5.9c1.1,2.4,1.3,5.9,0.8,10.5l4.5,1.6h-0.2c2.6,0.8,5.1,1.6,7.7,2.4c2.6,0.9,4.8,2,6.8,3.3c2,1.3,3.5,3,4.7,5
			c1.1,2,1.5,4.4,1,7.3c-0.5,3.1-1.4,6.6-2.7,10.5c-1.3,3.9-2.7,8-4.3,12.5l-0.8,2.3c-1.5,3.8-2.6,7.1-3.4,10.1
			c-0.8,3-1.3,6-1.8,9.1c-0.5,3.4-0.8,5.8-0.9,7.1c-0.1,1.3,0,1.9,0.2,1.9c0.3,0,0.8-0.2,1.4-0.7c0.6-0.5,1.3-1,2-1.7
			c0.7-0.6,1.4-1.3,2-2.1c0.6-0.7,1.2-1.4,1.8-1.9c3-3.5,6-7.3,9.1-11.4c3.1-4.1,5.9-7.9,8.4-11.5c2.6-3.6,4.8-6.8,6.7-9.6
			c1.9-2.8,3.1-4.7,3.6-5.6l-0.3,0.5c0-0.1,0.1-0.3,0.4-0.7c0.3-0.4,0.6-0.7,1.1-1.1c0.5-0.4,1.1-0.6,1.8-0.7
			c0.7-0.1,1.6,0.1,2.6,0.5h-0.3c0.7,0.2,1.4,0.7,1.9,1.5c0.5,0.8,0.5,1.6-0.2,2.3l0.5-0.5c-0.4,0.9-1.6,2.7-3.4,5.4
			c-1.8,2.7-4.1,6-6.8,9.8c-2.7,3.8-5.7,7.9-9,12.1c-3.3,4.3-6.6,8.4-9.9,12.2c-1,1.2-2,2.4-3.1,3.5c-1.1,1.2-2.4,2.4-3.9,3.7
			c-2,1.6-4.1,2.8-6.2,3.5c-2.1,0.7-4.1,1.1-6,1.1c-3.6,0-6.6-1.2-8.8-3.7c-2.2-2.5-3.1-5.7-2.8-9.8c0.4-4.1,1.2-8,2.3-11.7
			c1.1-3.7,2.5-8,4.3-12.9c1.5-4.1,2.9-8.2,4.3-12.5c1.4-4.2,2.4-8.1,2.9-11.5c0.5-4-0.1-6.9-2-8.7c-1.9-1.8-4.2-3.3-6.8-4.5
			c-1,3.8-2.4,7.9-4.2,12.4C724.8,495.2,722.7,499,720.3,502.1z M718.9,461.2c-0.3,1.4,0.1,2.7,1.2,4c1.1,1.3,2.4,2.4,3.9,3.2
			c0.1-5.1-0.6-8.4-2.3-9.7c-0.4-0.3-1-0.2-1.6,0.3C719.5,459.7,719.1,460.4,718.9,461.2z M723.9,472.2c0.1-0.5,0.2-1.1,0.2-1.8
			s0-1.3,0-1.9c0.7,0.5,1.5,1,2.3,1.4c0.7,0.4,1.4,0.8,2.1,1L723.9,472.2z"/>
		<path class="st0" d="M780,532.2c-3.3-1.6-5.3-4.1-6-7.6c-0.3-1.6-0.5-3.4-0.6-5.3c-0.1-1.9,0-3.9,0.2-5.8c0.3-2.1,0.8-4.3,1.4-6.5
			c0.6-2.2,1.5-4.4,2.6-6.5c1.3-2.9,2.9-5.8,4.7-8.7c1.9-2.9,4-5.5,6.3-7.8c2.3-2.3,4.8-4.3,7.5-5.9c2.7-1.6,5.4-2.7,8.2-3.2
			c2.3-0.3,4.5-0.3,6.8,0.1c2.3,0.4,4.3,1.2,6,2.3c1.7,1.2,2.9,2.7,3.6,4.6c0.7,1.9,0.5,4.1-0.6,6.7l0.2-0.2c-0.8,2-2.6,2.7-5.5,2.1
			c-1.3-0.5-2.1-1.1-2.5-1.6c-0.4-0.5-0.5-1.1-0.2-1.8c0.9-1.8,1.1-3.2,0.7-4.1c-0.4-0.9-1-1.4-1.8-1.4c-0.4,0-0.9,0.1-1.5,0.4
			c-0.6,0.3-1.3,0.6-2.2,1c-2.5,1.4-4.7,3.5-6.8,6.2c-2,2.7-3.8,5.8-5.4,9.2c-1.6,3.4-2.8,6.8-3.7,10.3c-0.9,3.5-1.5,6.7-1.8,9.6
			c-0.2,2.1-0.2,3.8-0.1,4.9c0.2,1.1,0.5,2,0.9,2.5c0.4,0.8,1.3,0.6,2.5-0.6c1.2-1.1,2.6-2.7,4.1-4.6c1.5-1.9,3-4,4.5-6.2
			c1.5-2.2,2.7-4,3.5-5.4v0.2c0.1-0.2,0.3-0.5,0.6-1c0.3-0.4,0.6-0.7,0.8-1c1.1-1.8,2.3-3.8,3.7-5.8c1.4-2,2.7-3.9,4-5.6
			c1.2-1.5,2.5-2.5,3.9-3.1c1.4-0.5,2.8-0.8,4.3-0.8c2.5,0,4.4,0.8,5.9,2.5c1.4,1.7,2,3.8,1.5,6.5c-0.3,2.8-1.3,6.1-2.8,9.9
			c-1.6,3.8-3.2,7.6-4.9,11.3c-0.6,1.4-1.3,3-2.1,4.7c-0.8,1.7-1.4,3.4-2,5.1c-0.6,1.7-1.1,3.2-1.6,4.7c-0.5,1.5-0.8,2.7-1,3.7
			c-0.2,0.5,0,0.6,0.6,0.3c0.6-0.3,1.3-0.9,2.2-1.6c3.2-2.7,6.2-5.6,8.8-8.7c2.7-3.1,5.2-6.3,7.5-9.6c2.3-3.3,4.4-6.6,6.4-9.9
			c2-3.3,3.9-6.6,5.7-9.8l0.5-0.5c0.4-0.9,1.3-1.4,2.5-1.8c1.2-0.3,2.5-0.3,3.9,0c0.9,0.8,1.3,1.3,1.4,1.8c0.1,0.4,0.1,0.9-0.2,1.4
			c-4.2,7.4-8.7,14.7-13.4,21.8c-4.8,7.1-10.5,13.4-17.3,18.9c-2.4,1.9-4.8,3.6-7.3,5c-2.5,1.4-5.2,2.1-8,2.1c-2.9,0-5.3-1-7.2-2.9
			v0.2c-1.2-1-1.9-2.2-2.3-3.6s-0.4-3.1-0.2-4.9c0.4-2.4,1.2-5,2.2-8c1-2.9,2.1-5.7,3.3-8.1c-2.7,3-5.6,5.6-8.8,7.8
			c-3.2,2.2-6.5,3.3-9.9,3.3C783.8,533.6,781.7,533.1,780,532.2z"/>
		<path class="st0" d="M853,547.5c-5.6-2.1-9.3-5.7-11.2-10.6c-1.9-4.9-2.4-10.3-1.5-16.2c0.5-3.1,1.2-6.2,2.1-9.2
			c0.9-3,2-6.1,3.5-9.2c1.6-3.2,3.7-6.5,6.4-10c2.6-3.4,5.5-6.6,8.8-9.4c3.2-2.8,6.6-5.2,10.1-7.1c3.5-1.9,7-2.8,10.3-2.8
			c3.1,0,6,0.8,8.7,2.5c2.7,1.7,4.8,4.5,6.4,8.6l-0.3-0.2c0.9,1.3,0.4,2.5-1.3,3.7c-1.9,1.1-3.3,1.4-4.2,1.1c-0.9-0.3-1.5-1-1.9-2.1
			c-1.8-3.9-3.5-5.8-5-5.8c-1.3,0-2.8,0.7-4.5,2.2c-1.7,1.4-3.5,3.2-5.3,5.4c-1.8,2.3-3.6,4.9-5.4,7.8c-1.8,3-3.4,6.1-4.9,9.4
			c-1.5,3.3-2.8,6.7-3.9,10.1c-1.1,3.4-1.9,6.7-2.3,9.8c-0.2,1.8-0.3,3.5-0.2,5.1c0.1,1.6,0.2,3.1,0.4,4.3c1.1,4.3,2.8,6.4,5.3,6.4
			c1.5,0,3.2-0.5,5.2-1.4c2-1,4-2.1,6-3.5c6.3-4.5,11.8-10.1,16.6-16.7c4.7-6.6,9.2-13.3,13.3-20.1c2.1-3.1,4.4-3.6,6.8-1.6
			l-0.3-0.2c1.6,1.2,2,2.4,1.3,3.7l-2.4,3.5h0.2c-4.4,6.8-8.8,13.2-13.3,19.4c-4.5,6.2-10,11.8-16.4,17c-2.9,2.1-6,3.9-9.2,5.3
			c-3.2,1.4-6.6,2.1-10.3,2.1c-2.5,0-4.9-0.5-7.2-1.4H853z"/>
		<path class="st0" d="M960,433.4c-0.2,3.2-1.3,7.1-3.1,11.6c-1.9,4.5-4.3,9.2-7.2,14.1c-2.9,4.9-6.1,9.7-9.6,14.4
			c-3.5,4.7-6.9,9-10.2,12.7c1.6-0.9,3.1-1.5,4.5-1.8c1.4-0.4,2.8-0.6,4.2-0.6c2.7,0,4.6,0.6,5.9,1.8c1.2,1.2,1.7,2.8,1.5,4.6
			c-0.2,1.2-0.8,2.5-1.8,4.1c-1,1.6-2.4,3.1-4.3,4.7c-2.1,1.8-4.6,3.5-7.4,5.1c-2.8,1.6-5.7,2.9-8.7,4.1c1.9,0.4,3.7,1.1,5.3,2.1
			s2.9,2.5,3.9,4.5c0.5,1.6,0.8,3.5,0.9,5.6c0.1,2.1-0.1,4.1-0.4,6c-0.1,0.5-0.2,1.1-0.3,1.7c-0.1,0.6-0.3,1.2-0.5,1.7
			c-0.2,0.9-0.4,1.7-0.6,2.4c-0.2,0.8-0.4,1.4-0.5,2.1c0-0.1,0.2-0.3,0.5-0.6c1.8-1.6,4.1-3.9,6.9-6.9c2.8-3,5.6-6.2,8.4-9.6
			c2.8-3.4,5.5-6.6,7.9-9.7c2.4-3.1,4.2-5.6,5.4-7.4c1.1-1.5,2.3-2.6,3.5-3.3c1.3-0.7,2.4-1,3.4-0.9c1,0.1,1.7,0.5,2.1,1.3
			c0.4,0.8,0.3,1.8-0.3,3.2c-0.6,1.2-1.8,2.9-3.5,5.2c-1.7,2.3-3.8,4.9-6.1,7.7c-2.4,2.8-4.9,5.8-7.6,8.8c-2.7,3-5.3,5.8-7.8,8.4
			c-2.5,2.6-4.9,4.8-7,6.7c-2.1,1.9-3.9,3.1-5.1,3.6c-1.2,0.4-2.4,0.8-3.5,1.1c-1.2,0.3-2.4,0.5-3.7,0.5c-2.5,0-4.5-0.6-6.2-1.9
			c-1.7-1.3-2.4-3.3-2.2-6.1c0.1-0.9,0.2-1.9,0.4-3.1c0.2-1.2,0.3-2.3,0.6-3.2c0.2-1.3,0.4-2.6,0.6-4c0.2-1.4,0.3-2.7,0.3-3.9
			c0-1.2-0.2-2.3-0.5-3.2c-0.3-0.9-0.9-1.6-1.8-2l0.8,0.2c-0.2,0-0.4-0.1-0.5-0.2c-0.1-0.1-0.2-0.2-0.3-0.2h-0.3
			c0.1,0,0.2,0,0.2,0.1c0,0.1-0.2,0-0.5-0.1l-0.3,3.1c-0.3,2.4-0.6,4.8-0.8,7.2c-0.2,2.5-0.4,5-0.5,7.7c-1.1,1.9-2.4,3.3-3.9,4.1
			c-1.5,0.8-3,1.2-4.5,1.2c-2,0-3.8-0.6-5.2-1.8c-1.4-1.2-2.2-2.3-2.3-3.2l0.3,0.3c-0.2-1.2-0.3-2.9-0.2-5.3
			c0.1-2.4,0.2-4.2,0.3-5.6c0.4-3.9,1.3-8.5,2.7-14c1.3-5.5,3-11.2,5-17.3c2-6.1,4.2-12.2,6.7-18.6c2.5-6.3,5-12.3,7.7-18
			c2.7-5.7,5.4-10.8,8.2-15.4c2.8-4.6,5.5-8.3,8.2-10.9c1.8-1.5,3.8-2.7,6-3.6c2.1-0.9,4.2-1.4,6.3-1.4c3.1,0,5.7,0.9,7.9,2.6
			C959.2,427.4,960.2,430,960,433.4z M918.3,502.6c2.8-1.5,5.5-3.3,8.3-5.4c2.7-2.1,4.7-4.2,5.9-6.4v-0.2c-1,0.6-2.1,1.4-3.3,2.3
			c-1.2,0.9-2.5,1.8-3.8,2.7c-1.3,1-2.5,1.9-3.7,2.9c-1.2,1-2.2,1.8-3.1,2.6L918.3,502.6z M920.6,495.7v-0.2c-0.1,0-0.2,0.1-0.2,0.2
			v0.2L920.6,495.7z M945.2,438.7c-4.4,6-8.3,12.9-11.6,20.7c-3.3,7.8-6.2,15.5-8.7,23c2.8-3.3,5.6-7,8.5-11.2
			c2.9-4.1,5.6-8.3,8-12.6c2.5-4.3,4.6-8.4,6.3-12.5c1.7-4,2.8-7.6,3.2-10.7c0.3-2.3,0.6-3.4,1-3.5c-0.9,0.2-2,1.1-3.3,2.7
			c-1.3,1.6-2.4,2.9-3.3,4.1H945.2z M931.5,536c-0.1-0.1-0.2-0.3-0.2-0.5c0,0.3,0.1,0.5,0.2,0.6c0.2,0.9,0.3,1.3,0.3,1.2
			C931.8,537.3,931.7,536.9,931.5,536z"/>
		<path class="st0" d="M951.9,541.7c-1.6-3.4-1.9-7.8-1-13.2c0.3-1.2,0.8-2.9,1.4-5.2c0.6-2.3,1.3-4.8,2-7.4
			c0.8-2.6,1.5-5.2,2.3-7.8c0.8-2.6,1.4-4.8,1.9-6.6c0.3-1.2,0.7-2.4,1.1-3.5c0.4-1.2,0.8-2.4,1.1-3.5c0.9-2.9,1.6-5.2,2.1-6.9
			c0.5-1.7,0.7-2.9,0.5-3.7l0.6,0.3c-0.5-0.5-0.7-1.3-0.5-2.2c0.2-0.9,1-1.7,2.3-2.3c1.2-0.4,2.7-0.5,4.4-0.3
			c1.8,0.2,3.5,0.7,5.1,1.4c1.6,0.7,2.9,1.6,3.9,2.8c1,1.2,1.4,2.6,1.2,4.2c-0.4,3.1-1.3,6.6-2.5,10.5c-1.2,3.9-2.6,7.8-4.1,11.9
			c-1.3,3.2-2.4,6.4-3.5,9.4c-1,3.1-1.8,6.2-2.5,9.6c-0.6,2.9-0.9,5-0.9,6.4c0.1,1.3,0.2,2.4,0.6,3.1c0,0.3,0.2,0.5,0.6,0.5
			c0.4,0,0.8-0.1,1.2-0.3c0.4-0.2,0.9-0.5,1.4-0.8c0.5-0.3,0.8-0.6,1-0.8c2-1.7,4.2-4.1,6.5-7.1c2.3-3,4.5-6.1,6.7-9.4
			c2.1-3.3,4.2-6.5,6.1-9.6c1.9-3.1,3.5-5.7,4.7-7.7l1.9-3.1h-0.2c0.5-1.3,1.4-2,2.7-2.2c1.3-0.2,2.6,0.2,4,1.2
			c1.2,1.1,1.4,2.2,0.6,3.4c-0.4,0.4-1.2,1.7-2.3,3.9c-1.3,2.1-2.9,4.8-4.8,7.9c-1.9,3.1-4,6.3-6.2,9.5c-2.2,3.2-4.5,6.3-6.8,9.2
			c-2.3,2.9-4.6,5.3-6.8,7.1c-2,1.7-4.6,3.4-7.6,4.9c-3.1,1.6-6.1,2.3-9.1,2.3c-2.1,0-4-0.4-5.6-1.2
			C954,545.3,952.8,543.8,951.9,541.7z M976.1,463.5c2.5,0.5,4.4,1.7,6,3.4c1.5,1.7,2.1,3.5,1.9,5.3c-0.4,2.4-1.6,4.1-3.6,5.3
			c-2,1.2-4.4,1.4-7.2,0.8c-2.5-0.5-4.4-1.7-5.8-3.4c-1.4-1.7-2-3.5-1.8-5.3c0.2-2.3,1.3-4,3.3-5.1
			C970.9,463.3,973.3,463,976.1,463.5z"/>
		<path class="st0" d="M1004,488.9c3.3-1.3,6.1-1.3,8.4,0c2.3,1.3,3.3,4.1,3.2,8.4c-0.2,0.9-0.7,2.6-1.4,5.1
			c-0.8,2.6-1.6,5.5-2.6,8.7c-1.1,2.9-2.5,6.5-4.2,10.8c-1.7,4.3-3.9,8.7-6.4,13.2c1.5-2.4,3-5,4.5-7.9c1.5-2.9,3.1-5.9,4.8-9
			c3.1-5.6,6.3-11.2,9.6-16.9c3.3-5.7,6.4-10.3,9.4-13.8c2.6-3,5.5-4.5,8.8-4.5c1.6,0,3.1,0.5,4.3,1.6c1.3,1.1,2.3,2.4,3.1,4.1
			c0.8,1.7,1.3,3.5,1.5,5.5c0.2,2,0.1,3.9-0.5,5.9c-0.9,2.8-1.9,5.6-3.1,8.5c-1.2,2.9-2.5,5.9-3.9,9c-1.5,3.1-2.9,6.2-4.2,9.4
			c-1.3,3.2-2.4,6.5-3.2,9.9c-0.2,1,0.1,1.2,1,0.6c0.9-0.5,1.9-1.4,3.1-2.5c1.2-1.1,2.3-2.3,3.4-3.4c1.1-1.1,1.7-1.8,1.9-2
			c3.9-4.3,7.7-9.1,11.6-14.4s7.1-10.1,9.7-14.4l0.3-0.5c0.4-0.9,1.3-1.4,2.5-1.8c1.2-0.3,2.5-0.3,3.8,0c0.9,0.8,1.4,1.3,1.6,1.8
			c0.2,0.4,0.2,0.9,0,1.4c-1.2,2-2.6,4.3-4.3,6.9c-1.7,2.6-3.6,5.2-5.5,8c-2,2.7-4.1,5.5-6.3,8.2c-2.2,2.7-4.4,5.3-6.5,7.6
			c-1.1,1.2-2.4,2.6-4,4.2s-3.4,3.2-5.4,4.7c-2,1.5-4.1,2.8-6.4,3.9c-2.3,1.1-4.6,1.6-7,1.6c-3,0-5.3-0.7-6.9-2.3h0.2
			c-1.2-1-1.9-2.1-2.2-3.3c-0.3-1.2-0.3-2.6-0.1-4.1c0.3-2.7,1.2-5.9,2.6-9.7c1.4-3.8,3-7.7,4.8-11.8c1.2-3.1,2.4-6.2,3.5-9.2
			c1.2-3,2.1-5.8,2.9-8.4c-1.9,3.1-4.1,6.8-6.5,11.1c-2.4,4.3-4.7,8.6-7,13c-1.8,3.5-3.6,6.9-5.4,10c-1.8,3.1-3.4,5.8-4.7,8
			c-1.6,2.5-3.5,4.4-5.7,5.7c-2.2,1.3-4.4,2-6.5,2c-2.1,0-3.9-0.6-5.3-1.8c-1.4-1.2-2-3.1-1.9-5.5c-0.1-1.1-0.1-2.2-0.1-3.4
			c0.1-1.2,0.2-2.3,0.4-3.4c0.5-3.4,1.3-6.9,2.3-10.3c1-3.4,2.1-6.8,3.3-10.1c0.9-2.6,1.7-5.2,2.6-7.8c0.9-2.6,1.5-5.2,1.9-7.8
			c0.3-1.5,0.8-3.1,1.5-4.7C999.8,491.3,1001.5,490,1004,488.9z M1032.5,494.4l-0.3,0.6L1032.5,494.4z"/>
		<path class="st0" d="M1083.8,520.3c1.3-1.8,2.5-3.6,3.7-5.3c1.2-1.7,2.6-3.4,4.2-5c2.6-2.6,5.1-3.9,7.6-3.9c2.5,0,4.2,1.2,5.1,3.5
			c1,2.4,1.3,4.9,1.1,7.7c-0.1,1.2-0.2,2.3-0.4,3.4c-0.2,1.1-0.3,2.3-0.6,3.7c3.8-3.5,7.3-7.3,10.6-11.2c3.3-3.9,6.5-8.3,9.7-13.3
			c1.3-1.9,3.7-2.1,7.2-0.6c0.9,0.5,1.1,1.2,0.8,2.1c-4.3,6.8-9.1,12.9-14.5,18.5c-5.4,5.6-10.8,10.8-16.4,15.8
			c-1.5,5.7-3.4,11.7-5.6,18c-2.3,6.3-4.7,12.4-7.4,18.1c-2.7,5.7-5.5,10.9-8.4,15.4c-3,4.6-5.8,7.9-8.4,9.9
			c-3.3,2.6-6.8,3.9-10.5,3.9c-3.3,0-6-1.2-8-3.7c-2-2.5-3-5.8-2.9-10.1c0.1-4.2,1.1-8.1,3-11.8c1.9-3.7,4.3-7.3,7.3-10.9
			c3-3.6,6.5-7.2,10.4-10.8c3.9-3.6,8.1-7.3,12.5-11l-1.1,0.8c0.7-2.5,1.4-4.8,2-6.9c0.6-2.1,1.1-4.3,1.5-6.4
			c-1.3,1.9-2.7,3.8-4.2,5.7c-1.5,1.9-3.1,3.6-4.9,5.1c-1.8,1.5-3.7,2.8-5.9,3.9c-2.1,1.1-4.5,1.8-6.9,2.1c-3.1,0.4-5.6,0.1-7.5-1
			c-1.9-1.1-3.3-2.6-4.3-4.5c-1-1.9-1.5-4.2-1.6-6.8c-0.1-2.6,0-5.3,0.3-8c0.4-2.8,1-5.5,1.8-8.1c0.8-2.6,1.6-4.9,2.4-6.7
			c0.9-1.8,1.9-3.7,3.2-5.7c1.3-2,2.7-4,4.3-6c1.3-1.4,2.6-2.7,4-3.9c1.4-1.2,3.1-2.6,5.1-4.1h-0.2c1.7-1.3,3.6-2.2,5.7-2.7
			c2.1-0.5,4.3-0.8,6.5-0.8c2.3,0,4.4,0.3,6.4,0.9c2,0.6,3.6,1.5,4.9,2.7c1.3,1.2,2.1,2.8,2.5,4.6c0.4,1.8,0.1,3.9-0.9,6.3l0.2-0.2
			c-0.8,1.9-2.6,2.6-5.5,2.1c-2.5-0.6-3.5-1.3-3.2-2.1c1-2.1,1.3-3.8,1-4.9c-0.3-1.1-0.9-1.7-1.8-1.7c-1.2,0-2.4,0.4-3.5,1.1
			c-3.1,1.8-5.9,4.6-8.4,8.3c-2.5,3.7-4.5,7.7-6,12h0.2c-1.7,4.7-2.8,9.2-3.4,13.5c-0.4,4-0.2,6.4,0.8,7.4c0.4,0.9,1.3,0.8,2.5-0.2
			c1.2-1,2.6-2.4,4-4.2c1.4-1.8,2.9-3.7,4.3-5.7c1.4-2,2.5-3.7,3.4-5v0.2l1.3-1.9L1083.8,520.3z M1059.9,591.4
			c1.8-1.9,3.6-4.3,5.3-7c1.7-2.7,3.4-5.7,5-8.9c1.6-3.2,3.1-6.5,4.5-10c1.4-3.4,2.7-6.7,3.9-9.8c-5.4,5-9.9,10.1-13.5,15
			c-3.6,5-5.6,10.2-5.8,15.7c0.1,1.2,0.2,2.3,0.2,3.3C1059.5,590.7,1059.6,591.3,1059.9,591.4z M1086.7,548.7
			c-1.5,1.2-2.9,2.3-4.2,3.5c-1.3,1.1-2.6,2.3-3.9,3.5l2.9-8.4L1086.7,548.7z"/>
	</g>
</g>
<path class="st6" d="M330.2,292.6c0,0,16.2,2.1,13.7,22.8c-2.5,20.8-1.2,49.4,34,70.2c0,0,13.3,6.2,12.5,15.8c0,0,22-5.8,63.9,0
	c0,0,22.4-22.8,36.9-23.7L386.7,234.5l-53.1,10.4l-11.6,27L330.2,292.6z"/>
<path class="st7" d="M477.8,363.4c0,0,6.6,24.1,42.8,73.3c0,0,4.4,6.8,11.4-1.7c0,0,3.9-8.5,16-11c0,0,12.2-4.8,4.8-10.6
	c0,0-33.8-30.9-56-47.9L477.8,363.4z"/>
<path class="st8" d="M352.8,244.3c0,0,45.1-8,34.9,44.6l83.3,60.9l11.9-18.5c0,0-11.9-34-37.4-51.2c0,0-10.8-7.2-16.9-23
	c0,0-8.9-32.1-40.1-35.7L352.8,244.3z"/>
<path class="st7" d="M327.7,281.4c0,0-8.6-33,29.1-34.6c0,0,22.4,1.4,30-10.1c0,0,8.7-13.6,8.2-29.6c0,0-3.1,7.1-34.3,10
	c-31.3,2.9-50.8,34.9-42.5,56.5C318.2,273.5,319.4,282.3,327.7,281.4z"/>
<path class="st9" d="M545.1,354.4c0,0-39.3-5-123.4-61.7c0,0-22.6-16.3-37.4-3.6c0,0-14.9,12.5,2.8,42.1c0,0,17.4,34,54.5,43.5
	c0,0,6.5,1-2.8-9.4c0,0,22.4,17.2,39,9.4c0,0,4.7-3-7.2-8.9c0,0,28.6,6.6,37.6,3.3c0,0,5.5-2.6-4.4-6.4c0,0-4.2-1.4-5.8-4.2
	C498.1,358.5,542.1,363,545.1,354.4z"/>
<path class="st10" d="M487.8,332.2c0,0,31,16.5,57.3,22.2c0,0,1.9,8.8-47,4.2c0,0,1.6,2.4,6.6,4.5c0,0,6.6,1.7,5.6,4.7
	c0,0-0.9,7-39.2-1.9c0,0,10.7,5.2,7.1,8.4c0,0-11.4,10.2-38.9-8.7c0,0,9.5,8.9,2.3,9c-0.9,0.1-28.9,0.5-54.3-43
	C387.3,331.6,437.4,373.4,487.8,332.2z"/>
<path class="st11" d="M381.9,321.1c0,0,39.4,34.1,88.2,1.7l4.4,2.5C474.5,325.2,425.9,360.5,381.9,321.1z"/>
<path class="st11" d="M487.8,332.2l-3.9-2c0,0-44.9,39.4-96.8,1C387.1,331.2,433.9,374.8,487.8,332.2z"/>
<path class="st12" d="M305.4,292.9l13-18.8c0,0,1.9,9.1,14.9,7.3c0,0-8.4,4.7-2.9,11.5H305.4z"/>
<path class="st13" d="M331.5,292.9h-26l28-11.5C333.4,281.4,326.4,285.7,331.5,292.9z"/>
<circle class="st14" cx="347.8" cy="270.4" r="8.6"/>
<circle class="st15" cx="347.1" cy="267.7" r="2.2"/>
<path class="st15" d="M347.9,266.1c0,0,3.5-0.8,5.2,3.9c0,0,0.1-6.8-5.9-6.8c0,0-4.4-0.4-6.1,4.8C341,268,344,265.3,347.9,266.1z"/>
<path class="st16" d="M395.3,400.3c0,0-2.4-2.4-4.6,0l-11.5,18.8h-19c0,0-4.3,0.1-4.6,1.9h25.9c0,0,0.7-0.4-0.4-1.8L395.3,400.3z"/>
<path class="st16" d="M455.1,400.3c0,0-2.4-2.4-4.6,0L439,419.1h-19c0,0-4.3,0.1-4.6,1.9h25.9c0,0,0.7-0.4-0.4-1.8L455.1,400.3z"/>
</svg>
