<?xml version="1.0" encoding="utf-8"?>
<!-- Generator: Adobe Illustrator 22.1.0, SVG Export Plug-In . SVG Version: 6.00 Build 0)  -->
<svg version="1.1" id="Calque_1" xmlns="http://www.w3.org/2000/svg" xmlns:xlink="http://www.w3.org/1999/xlink" x="0px" y="0px"
	 viewBox="0 0 1045 399.9" style="enable-background:new 0 0 1045 399.9;" xml:space="preserve">
<style type="text/css">
	.st0{fill:url(#SVGID_1_);}
	.st1{fill:#665A4D;}
	.st2{fill:#FFB646;}
	.st3{fill:#FFE781;}
	.st4{fill:#257F76;}
	.st5{fill:#7FADA4;}
	.st6{fill:#FCFBDB;}
	.st7{fill:#F3E4D2;}
	.st8{fill:#128784;}
	.st9{fill:#32B2B1;}
	.st10{fill:#BA9363;}
	.st11{fill:#0D5E5A;}
	.st12{fill:#72D6D3;}
	.st13{fill:#727475;}
	.st14{fill:#515556;}
	.st15{fill:#181919;}
	.st16{fill:#FCFCFC;}
	.st17{fill:#777574;}
</style>
<radialGradient id="SVGID_1_" cx="435.4008" cy="233.9398" r="305.8257" gradientTransform="matrix(6.092840e-02 0.9981 -2.3495 0.1434 916.1208 -273.0838)" gradientUnits="userSpaceOnUse">
	<stop  offset="0" style="stop-color:#FFFFFF;stop-opacity:0.7"/>
	<stop  offset="0.1465" style="stop-color:#FFFFFF;stop-opacity:0.5975"/>
	<stop  offset="1" style="stop-color:#FFFFFF;stop-opacity:0"/>
</radialGradient>
<path class="st0" d="M423.5,695.1C183.5,709.7-24.8,497.7-41.7,221.6S122.4-290.3,362.5-305c240.1-14.7,448.3,197.3,465.2,473.5
	C844.5,444.7,663.6,680.4,423.5,695.1z"/>
<g id="Calque_1_1_">
	<path class="st1" d="M274,226.7c0,0-19.6,7.5-172.7-13.6l-10.6-0.3c0,0-30.6,23.3-72.1,35.1c0,0-3.4-0.1-4.9-2.3
		c0,0,50.8-22.1,66.5-38.1c0,0-39.2-15.3-58.2-17.2l4.8-5.1c0,0,20.4,1.4,35.4,4.1c0,0,155.4,31.6,190.9,26.3c0,0,73.8-3,172.5,2.5
		c5.8,0.3,17.9,9.9,7.6,11.9C426.5,231.1,316.1,220,274,226.7z"/>
	<path class="st1" d="M64.4,226.5c0,0-1,16.2-19.9,36c0,0,0.9,1.6,7.5,0.2c0,0,21.5-28.8,24-43.4L64.4,226.5z"/>
	<ellipse class="st2" cx="20.3" cy="178.4" rx="7.2" ry="7.2"/>
	
		<ellipse transform="matrix(2.605257e-02 -0.9997 0.9997 2.605257e-02 -149.7393 206.9334)" class="st2" cx="31.3" cy="180.3" rx="6.8" ry="6.1"/>
	<ellipse class="st2" cx="32.9" cy="192.7" rx="7.3" ry="7.3"/>
	<circle class="st2" cx="11.4" cy="188.2" r="7.4"/>
	<circle class="st2" cx="20.7" cy="196.4" r="7"/>
	<ellipse class="st2" cx="47.7" cy="262.1" rx="8.6" ry="8.6"/>
	<ellipse transform="matrix(0.6026 -0.798 0.798 0.6026 -193.6559 152.6695)" class="st2" cx="56.5" cy="270.8" rx="8.2" ry="7.3"/>
	<circle class="st2" cx="49.4" cy="283.9" r="8.8"/>
	<circle class="st2" cx="32.3" cy="265.4" r="8.9"/>
	<circle class="st2" cx="35.6" cy="279.9" r="8.4"/>
	<circle class="st3" cx="25.1" cy="187" r="6.2"/>
	<circle class="st3" cx="44.4" cy="273.2" r="8.1"/>
	
		<ellipse transform="matrix(2.605252e-02 -0.9997 0.9997 2.605252e-02 -47.775 314.4923)" class="st4" cx="137.5" cy="181.8" rx="39.2" ry="90.9"/>
	<path class="st4" d="M176.9,216.2c0,0,21.6,6.2,42-3.1c0,0,13.3-8.5,6.5-25.8C225.4,187.4,225.3,210.6,176.9,216.2z"/>
	<path class="st4" d="M51.1,171.1c0,0-10.5,7.5-11.4,14.4c0,0-0.7,1.3,1.4,1.7c0,0-0.3-5.3,11.4-13.9L51.1,171.1z"/>
	<path class="st4" d="M51.2,169.8c0,0-1.9-6.3,9.5-13.2c0,0,1.9-1.7,3.5-7.6c0,0,1.6-1.5,2.3,0.1c0,0-1.1,9-3.7,11.1L51.2,169.8z"/>
	<path class="st4" d="M68.1,157.5c0,0,4.9-16.7,19.3-9.5L68.1,157.5z"/>
	<path class="st4" d="M90.2,146.4c0,0,5.6-8.9,11.9-1.6L90.2,146.4z"/>
	<path class="st5" d="M58.4,178.3c0,0,1,6.8,12.7,15.6C71.1,193.9,53.7,188.3,58.4,178.3z"/>
	<path class="st5" d="M88.9,194.4c0,0,22.5,6.7,54.1,8C143.1,202.3,109.2,208.9,88.9,194.4z"/>
	<path class="st5" d="M139.5,214.2c0,0,36.3,0.7,56-8.5C195.5,205.7,181.7,220.4,139.5,214.2z"/>
	<path class="st5" d="M110.7,194.9c0,0-38.5-6.2-42.7-23.4c0,0-1.1-2.6,1.2-2.8c0,0,1.6,0,2.5,2.9
		C71.7,171.6,78.3,187.5,110.7,194.9z"/>
	<path class="st5" d="M110.4,206.6c0,0,45.8,5.9,69.1-1.4C179.5,205.3,164.2,217.9,110.4,206.6z"/>
	<path class="st5" d="M124.2,214.9c0,0-38.6-2.8-55.8-17.8C68.5,197.1,74.7,215.1,124.2,214.9z"/>
	<path class="st5" d="M160.7,199.5c0,0,39.8-6.5,48.2-17.2c0,0,2.6,6.9-5,10.6C204,192.9,196.1,200.4,160.7,199.5z"/>
	<path class="st5" d="M190.5,215.3c0,0,24.7-3.6,32.7-14.1C223.2,201.1,218.9,217.3,190.5,215.3z"/>
	<path class="st5" d="M63.5,172.4c0,0-0.6,5.1,9.9,12.7C73.4,185,64.5,186.7,63.5,172.4z"/>
	<path class="st5" d="M57.4,189.1c0,0,6.2,13.5,15.4,16.3C72.9,205.4,60.7,207,57.4,189.1z"/>
	<path class="st5" d="M208.7,172.4c0,0,13.5,7.5,10.7,20.9C219.4,193.3,228.2,179,208.7,172.4z"/>
	<path class="st5" d="M100.3,162.3c0,0,60.2-2.4,74.8,1.9l-3.2-5.2c0,0-56.6-5-74.3,0.6L100.3,162.3z"/>
	<path class="st5" d="M97.7,155c1.4,0,14.4-2.9,35.6-1.2c0,0-24-4.4-35.5-2.6L97.7,155z"/>
	<path class="st5" d="M184.7,158.4c0,0-16.8-4.6-28.8-4c0,0,21.9-1.1,27.5,0.6L184.7,158.4z"/>
	<path class="st5" d="M68,160.3c0,0,11.3-10.4,19.3-10l-4.6,6.4C82.7,156.7,76.7,156.1,68,160.3z"/>
	<path class="st6" d="M74,171.2c0,0,11.5,14.4,35.5,17.8c0,0,12.6-16-1.9-34.1c0,0-17.5-22.6-30.6-0.8C76.9,154.1,73,161.5,74,171.2
		z"/>
	<path class="st6" d="M116.3,191.3c0,0-6.1-19.2,7.5-34.8c0,0,14-14.9,24.9,4.4c0,0,9.5,20.9,1.6,33.5
		C150.2,194.4,132,198.6,116.3,191.3z"/>
	<path class="st6" d="M159.6,193.7c0,0-11.8-15.6,3.7-32.7c0,0,18-18.6,27.2-2.1c0,0,6.8,13.3,1.7,28.8
		C192.3,187.7,174.6,195,159.6,193.7z"/>
	<path class="st1" d="M215.1,219.3c0,0,19.9,22.6,45.9,37.1c0,0,3.9,1.8,6.1-3.2c0,0-30.6-16.1-35.4-34h-16.6V219.3z"/>
	<ellipse class="st2" cx="220.6" cy="241.2" rx="6.2" ry="6.2"/>
	
		<ellipse transform="matrix(0.4114 -0.9115 0.9115 0.4114 -90.1707 333.471)" class="st2" cx="213.1" cy="236.5" rx="5.9" ry="5.2"/>
	<circle class="st2" cx="215.9" cy="226.2" r="6.3"/>
	<circle class="st2" cx="230.9" cy="236.5" r="6.4"/>
	<circle class="st2" cx="226.2" cy="226.8" r="6"/>
	<ellipse class="st2" cx="268.2" cy="255.8" rx="7.2" ry="7.2"/>
	
		<ellipse transform="matrix(0.6596 -0.7516 0.7516 0.6596 -108.6877 285.1823)" class="st2" cx="260.5" cy="262.6" rx="6.1" ry="6.8"/>
	<circle class="st2" cx="250" cy="255.9" r="7.3"/>
	<circle class="st2" cx="266.4" cy="242.8" r="7.4"/>
	<ellipse transform="matrix(0.3162 -0.9487 0.9487 0.3162 -58.3264 408.4776)" class="st2" cx="254.2" cy="244.7" rx="7" ry="7"/>
	<circle class="st3" cx="259" cy="252.2" r="7.5"/>
	<circle class="st3" cx="221.1" cy="232.3" r="5.4"/>
	<g>
		<g>
			<path class="st1" d="M358.1,340.2c-4.1-2.9-6.7-6.9-7.8-11.9c-1.1-5-1.3-10.5-0.4-16.2c0.5-3.5,1.3-7.2,2.3-10.9
				c1-3.8,2.2-7.3,3.5-10.8c1.3-3.4,2.6-6.7,4-9.7c1.4-3.1,2.7-5.7,3.9-8c4.3-7.5,9.7-14.6,16.2-21.2s14.4-12.2,23.7-16.6l-0.5,0.2
				c2.3-1.6,4-1.6,5.3,0c0.9-1.7,1.7-3.4,2.7-5.1c0.9-1.7,1.8-3.2,2.7-4.7c-7.7-1.2-15.2-3.4-22.5-6.8c-7.3-3.3-13.5-7.4-18.7-12.2
				c-1.2-1.3-1.4-2.4-0.6-3.2c2.5-2.3,4.7-2.6,6.8-1.1c5,4.8,11,8.8,17.9,11.9s13.9,5.2,21.1,6.3c1.4-1.8,3.2-3.7,5.3-5.7
				s4.5-3.8,7.1-5.4s5.2-2.9,7.9-4s5.3-1.6,7.9-1.6c3.1,0,5.6,0.5,7.4,1.6c1.4,1,2.4,2,3,3.2s0.8,2.4,0.6,3.5
				c-0.3,2.4-1.9,4.7-4.7,6.9c-2.8,2-6,3.6-9.6,4.8s-7.4,2-11.3,2.6c-4.5,6.8-8.5,14.6-12.1,23.4c-3.5,8.8-6.8,17.6-9.6,26.1
				c8.7-10.1,16.9-19,24.7-26.8s14.9-13.7,21.3-17.8c2.5-1.6,5-2.9,7.5-3.9s4.9-1.4,7.2-1.4c3.1,0,5.7,0.9,7.6,2.7
				c2,1.8,3.1,4.7,3.5,8.9h-0.2c0.3,2.9,0.2,6.3-0.3,10.3c-0.9,6.1-2.7,13.9-5.5,23.2c-2.8,9.4-6.8,20.8-12,34.2
				c-3.2,8-5.7,14.9-7.3,20.5c-1.7,5.6-2.8,10.3-3.3,13.9c-0.1,0.9-0.2,1.7-0.2,2.6c-0.1,0.9,0,1.7,0.1,2.6c0,1-0.3,1.7-0.8,2.3
				c0.5-0.2,1.4-0.7,2.7-1.5s2.7-2,4.2-3.5c2.8-2.6,5.8-5.8,9.2-9.7c3.3-3.9,6.7-8,10.1-12.5c3.4-4.4,6.7-9,9.9-13.8
				c3.2-4.7,6.1-9.2,8.5-13.3c0.5-1,1.2-1.5,2.1-1.7s2.2-0.1,4,0.2c1,0.5,1.6,1,1.8,1.4c0.3,0.4,0.3,0.8,0.1,1.4
				c-2.5,4.2-5.4,8.7-8.7,13.6c-3.3,4.9-6.8,9.7-10.4,14.4c-3.6,4.7-7.2,9.2-10.8,13.3c-3.6,4.2-7,7.7-10.2,10.5
				c-2,1.8-3.9,3.3-5.6,4.3c-1.7,1.1-3.5,1.8-5.3,2.3c-0.2,0.2-0.5,0.3-0.7,0.2c-0.3-0.1-0.6-0.1-1-0.1c-2.8,0.9-5.1,1.3-6.9,1.3
				c-6,0-9.2-3.1-9.5-9.2c-0.1-0.8-0.1-1.6,0-2.6s0.3-1.9,0.5-2.9c0.5-3.6,1.7-8.3,3.5-14.1c1.8-5.7,4.3-12.8,7.5-21.3
				c0.1-0.4,0.6-1.7,1.4-3.8s1.8-4.7,2.9-7.8c1.1-3.1,2.4-6.6,3.7-10.5s2.6-7.9,3.9-12.1c1.2-4.1,2.3-8.2,3.3-12.3
				c1-4.1,1.7-7.8,2.3-11.3c0.5-3.6,0.8-6.6,0.7-8.9s-0.5-3.5-1.4-3.5c-0.4,0-1.5,0.6-3.2,1.8c-3.5,2.3-7.5,5.3-11.8,9.2
				s-9,8.5-14,13.8c-5,5.3-10.2,11.1-15.6,17.5s-10.9,13.1-16.5,20.2l0.5-0.5c-2.9,8-5.8,15.4-8.7,22.2c-2.9,6.8-6.2,12.4-9.8,16.9
				c-2.1,2.5-4.8,4.5-7.9,6c-3.1,1.6-6.2,2.3-9.3,2.3C363.2,343,360.4,342,358.1,340.2z M389.5,282.8c2.5-7.4,5-14.7,7.7-22
				c2.7-7.2,5.5-14.2,8.5-20.8c-7.5,3.8-14.2,8.7-19.9,15c-5.8,6.2-10.7,12.9-14.6,19.9h0.2c-0.9,1.5-1.9,3.6-3.1,6.3
				c-1.2,2.7-2.4,5.7-3.6,9.1s-2.4,7-3.5,10.9s-1.9,7.6-2.4,11.3c-0.8,5.1-0.8,9.8-0.2,14.1c0.6,4.2,2.3,7.3,5.1,9.2
				c1,0.8,2.1,0.4,3.5-1.1c1.3-1.5,2.8-3.7,4.3-6.5c1.6-2.8,3.1-6.2,4.7-10s3.2-7.7,4.7-11.6s2.9-7.6,4.2-11.2s2.4-6.5,3.2-8.8
				c0.2-0.6,0.4-1.3,0.6-1.9C389.1,283.9,389.3,283.3,389.5,282.8z M441.5,214c-1.1,0.9-2.1,1.7-3.2,2.7c-1.1,0.9-2.1,2-3.1,3.1
				c4.3-1,8.2-2.7,11.7-5.3v0.2c0.9-0.7,1.4-1.7,1.7-2.7c0.3-1.1,0-1.6-0.9-1.6c-0.4,0-1.1,0.2-2.1,0.7S443.3,212.5,441.5,214z"/>
			<path class="st1" d="M528.3,316.9c2.9-3.5,5.6-7.4,8-11.5c2.5-4.1,4.8-8,6.9-11.5c0.5-0.9,1.4-1.4,2.6-1.7c1.2-0.3,2.5-0.2,4,0.1
				c1.2,1.3,1.6,2.3,1.3,3.1c-2.3,4-4.7,8.2-7.5,12.6c-2.7,4.5-5.7,8.5-8.8,12.1c-2.1,2.8-5,5.6-8.4,8.4c-3.5,2.8-7.3,5.1-11.5,6.7
				c-1.2,0.5-2.5,0.9-3.9,1.1s-2.8,0.3-4.1,0.3c-5,0-9.1-1.5-12.1-4.6s-4.9-6.8-5.5-11.2c-0.3-1.7-0.5-3.4-0.6-5.1s0-3.3,0.2-4.9
				c0.5-4.2,1.8-8.4,3.7-12.6s4.3-8.3,7.1-12.1c2.8-3.8,5.9-7.2,9.3-10.3c3.4-3.1,7-5.4,10.8-7c1.5-0.6,3-1.1,4.5-1.4
				s2.9-0.4,4.3-0.4c4.1,0,7.2,1.1,9.4,3.2s3,5,2.5,8.5c-0.1,1-0.4,2-0.8,3.2c-0.4,1.2-1,2.5-1.8,4c-2.1,3.6-5.5,7-10,10.1
				s-10.9,5.1-19.3,6c-0.5,1.2-1,2.6-1.4,4.3s-0.8,3.4-1,5.2c-0.5,3.2-0.6,6.3-0.1,9.2c0.5,3,1.6,5.1,3.5,6.4
				c1.5,0.8,2.6,1.1,3.2,1.1c1.3,0,2.6-0.4,4-1.2s2.8-1.8,4.2-2.9s2.7-2.4,4-3.7s2.4-2.6,3.4-3.8h-0.1L528.3,316.9L528.3,316.9z
				 M507.2,297c0.7-0.1,1.5-0.2,2.2-0.2c0.7-0.1,1.4-0.2,2-0.4c-0.2,0.5-0.4,1-0.6,1.4s-0.4,0.8-0.5,1.1L507.2,297z M530.2,274.3
				c-1.6,0.5-3.3,1.6-5.1,3.3c-1.8,1.7-3.5,3.5-5.1,5.6c-1.7,2.1-3.2,4.3-4.7,6.7c-1.5,2.4-2.8,4.5-3.9,6.4c4.9-1,9-2.6,12.1-5
				s5.4-4.8,6.8-7.4c0.4-0.7,0.8-1.5,1-2.3c0.3-0.8,0.5-1.6,0.6-2.5c0.2-1.2,0.2-2.3-0.2-3.2S530.9,274.4,530.2,274.3z"/>
			<path class="st1" d="M571.7,283.3c-0.2,0.3-0.8,0.5-1.6,0.6c-0.9,0.1-1.7,0-2.7-0.2c-0.9-0.2-1.7-0.5-2.5-0.8s-1.1-0.6-1.1-1
				c1-2.5,1.5-4.6,1.5-6.4c0.1-1.8-0.5-2.7-1.5-2.7c-0.6,0-1.9,0.8-3.7,2.3l0.3-0.2c-2.1,2.5-3.4,5.1-3.7,7.9
				c-0.2,1.8-0.2,3.7,0.2,5.5c0.3,1.9,0.7,3.7,1.3,5.4l2.4,6.4v-0.2l2.3,6c2.6-1.6,5-3.3,7.3-5.1c2.3-1.8,4.2-3.8,5.7-6
				c0.4-0.6,1.2-1,2.2-1.2s2-0.2,3.1-0.1c1,0.1,1.9,0.3,2.7,0.6c0.7,0.3,1.1,0.6,1.1,0.9c-2.7,3.8-5.9,7.1-9.7,9.9
				s-7.4,5.2-10.7,7.2c0.4,4.1,0.4,8,0,11.9c-0.6,4.7-2.4,9.1-5.2,13c-2.8,4-7.2,6.9-13.1,8.8c-1,0.2-1.9,0.4-2.8,0.6
				c-0.9,0.2-2,0.2-3.1,0.2c-2.5,0-4.7-0.6-6.7-1.8s-3.1-3.2-3.3-6c-0.1-1.9,0.4-3.9,1.6-6c1.2-2,2.7-4,4.4-6c1.8-2,3.7-3.9,5.9-5.6
				c2.1-1.8,4.1-3.4,6-4.9l1.3-1c-0.3-1.8-0.9-3.8-1.6-5.8c-0.8-2-1.4-3.9-2.1-5.5c-0.8-1.7-1.5-3.5-2.2-5.2
				c-0.7-1.8-1.2-3.1-1.4-4.1h0.2c-1-3.8-1.4-7.3-1.3-10.5c0.1-3.3,0.9-6.2,2.3-8.7c1.4-2.5,3.5-4.6,6.2-6.3
				c2.7-1.7,6.1-2.8,10.2-3.3c5.3-0.5,9,0.4,11.2,2.8s3,5.4,2.5,9.1c-0.1,0.8-0.3,1.6-0.6,2.5C572.5,281.4,572.2,282.3,571.7,283.3z
				 M539.4,339.3c2.8-1.4,5-3.6,6.7-6.5s2.8-6,3.3-9.1c-1.5,1.2-3,2.5-4.4,3.9s-2.7,2.8-3.8,4.2s-1.8,2.7-2.3,4s-0.5,2.4,0.1,3.4
				c0,0.2,0.2,0.3,0.6,0.2h-0.2L539.4,339.3L539.4,339.3z M554.7,319.5c-0.6,0.4-1.4,1-2.4,1.8s-1.9,1.6-2.9,2.4
				c0.2-0.9,0.3-1.7,0.3-2.6s0-1.7,0-2.6L554.7,319.5z"/>
			<path class="st1" d="M566.1,259.6c-0.2,0.3-0.7,0.5-1.5,0.5s-1.7-0.1-2.7-0.3c-1-0.2-1.8-0.5-2.5-0.9s-1-0.7-1-1
				c1.1-2.3,2.7-4.1,4.8-5.7c2.1-1.5,4.7-2.8,7.8-3.7s6.4-1.7,10.1-2.2c3.7-0.5,7.6-0.9,11.7-1.1c2.5-6.6,4.6-12.2,6.5-16.8
				s3.2-7.5,3.9-8.9c0.6-1.1,1.9-1.7,3.8-1.8c1.9-0.1,3.7,0.2,5.5,1s3.2,2,4.3,3.7s1.3,3.6,0.6,5.9c-0.5,1.6-1.4,3.9-2.7,7
				c-1.2,3.1-2.4,5.8-3.6,8.3l-0.6,1.4c1.2,0,2.5,0,3.9,0.1s3,0.1,4.6,0.1c2.1,0,4.3,0,6.5-0.1s4.2-0.2,6.1-0.3
				c1.9-0.2,3.5-0.3,4.7-0.6c1.3-0.2,2.1-0.5,2.4-1c1-2,3.2-2.3,6.8-0.6c0.6,0.5,1,1,1,1.4c0.1,0.4-0.3,1-1,1.7l0.5-0.2
				c-0.8,1-2,1.9-3.9,2.5c-1.8,0.6-3.9,1.1-6.4,1.5c-2.4,0.4-5,0.6-7.9,0.7c-2.8,0.1-5.6,0.2-8.3,0.2c-1.7,0-3.4,0-5-0.1
				s-3.1-0.1-4.5-0.1h-1.9l-1,2.4c-1.5,3.9-3.2,8.3-5,13.3s-3.6,10.3-5.3,15.7c-1.7,5.4-3.3,10.8-4.7,16.2c-1.4,5.4-2.5,10.4-3.1,15
				c-0.9,5-1,9.3-0.5,12.9c0.2,1.2,0.4,2.1,0.5,2.8s0.3,1,0.6,1c1.5-0.4,3.2-1.4,5.1-2.9c1.9-1.5,3.9-3.3,6-5.5
				c2.1-2.1,4.2-4.5,6.3-7.1s4-5.1,5.9-7.7c1.8-2.6,3.5-5,5.1-7.3s2.8-4.3,3.8-5.9c0.6-1.2,1.7-2,3.1-2.3c1.4-0.4,2.6,0,3.5,1.2
				c1.3,0.6,1.8,1.4,1.6,2.3c-1,1.8-2.3,4-3.9,6.4c-1.6,2.5-3.5,5.1-5.5,7.9c-2.1,2.8-4.3,5.6-6.7,8.4s-4.7,5.4-7.1,7.7
				c-1.3,1.3-2.8,2.6-4.4,3.9c-1.7,1.3-3.5,2.6-5.5,3.7s-4.1,2.1-6.3,2.8c-2.2,0.8-4.4,1.1-6.5,1.1c-3,0-5.6-0.8-7.9-2.4
				c-2.4-2-3.9-5-4.5-8.8c-0.6-3.9-0.7-8.3-0.2-13.3c0.6-4.3,1.6-8.9,2.9-13.8c1.3-4.9,2.7-9.8,4.3-14.7c1.6-4.9,3.1-9.6,4.7-14.1
				c1.6-4.5,3.1-8.5,4.3-12.1l2.6-6.6c-6.2,0.4-11.5,1.2-15.8,2.4C570.4,254.2,567.5,256.4,566.1,259.6z"/>
			<path class="st1" d="M628.3,296c-1.7,2.4-3.7,2.7-6,1c-0.5-0.4-1-1-1.3-1.7s-0.2-1.3,0.3-1.8c1-1.4,2-3.1,3-5.1s2-4.2,2.8-6.4
				c0.9-2.3,1.6-4.5,2.3-6.7s1.3-4.3,1.7-6.2c-1.5-0.6-3.1-1.4-4.7-2.4c-1.7-1-3.2-2.1-4.5-3.3c-1.3-1.2-2.4-2.5-3.1-3.9
				c-0.7-1.4-0.9-2.8-0.6-4.3c0.5-2.4,1.9-4.1,4-5.3s4.4-1.8,6.9-1.8c2.6,0,4.6,0.5,6.1,1.4c1.6,1.5,2.9,3.5,4,5.9
				c1.1,2.4,1.3,5.9,0.8,10.5l4.5,1.6h-0.2c2.6,0.8,5.1,1.6,7.7,2.4c2.6,0.9,4.8,2,6.8,3.3s3.5,3,4.7,5c1.1,2,1.5,4.4,1,7.3
				c-0.5,3.1-1.4,6.6-2.7,10.5s-2.7,8-4.3,12.5l-0.8,2.3c-1.5,3.8-2.6,7.1-3.4,10.1c-0.8,3-1.3,6-1.8,9.1c-0.5,3.4-0.8,5.8-0.9,7.1
				c-0.1,1.3,0,1.9,0.2,1.9c0.3,0,0.8-0.2,1.4-0.7c0.6-0.5,1.3-1,2-1.7c0.7-0.6,1.4-1.3,2-2.1c0.6-0.7,1.2-1.4,1.8-1.9
				c3-3.5,6-7.3,9.1-11.4s5.9-7.9,8.4-11.5c2.6-3.6,4.8-6.8,6.7-9.6c1.9-2.8,3.1-4.7,3.6-5.6l-0.3,0.5c0-0.1,0.1-0.3,0.4-0.7
				c0.3-0.4,0.6-0.7,1.1-1.1s1.1-0.6,1.8-0.7s1.6,0.1,2.6,0.5h-0.3c0.7,0.2,1.4,0.7,1.9,1.5s0.5,1.6-0.2,2.3l0.5-0.5
				c-0.4,0.9-1.6,2.7-3.4,5.4c-1.8,2.7-4.1,6-6.8,9.8s-5.7,7.9-9,12.1c-3.3,4.3-6.6,8.4-9.9,12.2c-1,1.2-2,2.4-3.1,3.5
				c-1.1,1.2-2.4,2.4-3.9,3.7c-2,1.6-4.1,2.8-6.2,3.5c-2.1,0.7-4.1,1.1-6,1.1c-3.6,0-6.6-1.2-8.8-3.7s-3.1-5.7-2.8-9.8
				c0.4-4.1,1.2-8,2.3-11.7s2.5-8,4.3-12.9c1.5-4.1,2.9-8.2,4.3-12.5c1.4-4.2,2.4-8.1,2.9-11.5c0.5-4-0.1-6.9-2-8.7
				c-1.9-1.8-4.2-3.3-6.8-4.5c-1,3.8-2.4,7.9-4.2,12.4C632.8,289.1,630.7,292.9,628.3,296z M626.9,255.1c-0.3,1.4,0.1,2.7,1.2,4
				c1.1,1.3,2.4,2.4,3.9,3.2c0.1-5.1-0.6-8.4-2.3-9.7c-0.4-0.3-1-0.2-1.6,0.3C627.5,253.6,627.1,254.3,626.9,255.1z M631.9,266.1
				c0.1-0.5,0.2-1.1,0.2-1.8s0-1.3,0-1.9c0.7,0.5,1.5,1,2.3,1.4c0.7,0.4,1.4,0.8,2.1,1L631.9,266.1z"/>
			<path class="st1" d="M688,326.1c-3.3-1.6-5.3-4.1-6-7.6c-0.3-1.6-0.5-3.4-0.6-5.3s0-3.9,0.2-5.8c0.3-2.1,0.8-4.3,1.4-6.5
				c0.6-2.2,1.5-4.4,2.6-6.5c1.3-2.9,2.9-5.8,4.7-8.7c1.9-2.9,4-5.5,6.3-7.8s4.8-4.3,7.5-5.9s5.4-2.7,8.2-3.2
				c2.3-0.3,4.5-0.3,6.8,0.1s4.3,1.2,6,2.3c1.7,1.2,2.9,2.7,3.6,4.6c0.7,1.9,0.5,4.1-0.6,6.7l0.2-0.2c-0.8,2-2.6,2.7-5.5,2.1
				c-1.3-0.5-2.1-1.1-2.5-1.6s-0.5-1.1-0.2-1.8c0.9-1.8,1.1-3.2,0.7-4.1c-0.4-0.9-1-1.4-1.8-1.4c-0.4,0-0.9,0.1-1.5,0.4
				s-1.3,0.6-2.2,1c-2.5,1.4-4.7,3.5-6.8,6.2c-2,2.7-3.8,5.8-5.4,9.2c-1.6,3.4-2.8,6.8-3.7,10.3s-1.5,6.7-1.8,9.6
				c-0.2,2.1-0.2,3.8-0.1,4.9c0.2,1.1,0.5,2,0.9,2.5c0.4,0.8,1.3,0.6,2.5-0.6c1.2-1.1,2.6-2.7,4.1-4.6s3-4,4.5-6.2s2.7-4,3.5-5.4
				v0.2c0.1-0.2,0.3-0.5,0.6-1c0.3-0.4,0.6-0.7,0.8-1c1.1-1.8,2.3-3.8,3.7-5.8s2.7-3.9,4-5.6c1.2-1.5,2.5-2.5,3.9-3.1
				c1.4-0.5,2.8-0.8,4.3-0.8c2.5,0,4.4,0.8,5.9,2.5c1.4,1.7,2,3.8,1.5,6.5c-0.3,2.8-1.3,6.1-2.8,9.9c-1.6,3.8-3.2,7.6-4.9,11.3
				c-0.6,1.4-1.3,3-2.1,4.7s-1.4,3.4-2,5.1s-1.1,3.2-1.6,4.7s-0.8,2.7-1,3.7c-0.2,0.5,0,0.6,0.6,0.3s1.3-0.9,2.2-1.6
				c3.2-2.7,6.2-5.6,8.8-8.7c2.7-3.1,5.2-6.3,7.5-9.6s4.4-6.6,6.4-9.9s3.9-6.6,5.7-9.8l0.5-0.5c0.4-0.9,1.3-1.4,2.5-1.8
				c1.2-0.3,2.5-0.3,3.9,0c0.9,0.8,1.3,1.3,1.4,1.8c0.1,0.4,0.1,0.9-0.2,1.4c-4.2,7.4-8.7,14.7-13.4,21.8
				c-4.8,7.1-10.5,13.4-17.3,18.9c-2.4,1.9-4.8,3.6-7.3,5s-5.2,2.1-8,2.1c-2.9,0-5.3-1-7.2-2.9v0.2c-1.2-1-1.9-2.2-2.3-3.6
				s-0.4-3.1-0.2-4.9c0.4-2.4,1.2-5,2.2-8c1-2.9,2.1-5.7,3.3-8.1c-2.7,3-5.6,5.6-8.8,7.8s-6.5,3.3-9.9,3.3
				C691.8,327.5,689.7,327,688,326.1z"/>
			<path class="st1" d="M761,341.4c-5.6-2.1-9.3-5.7-11.2-10.6s-2.4-10.3-1.5-16.2c0.5-3.1,1.2-6.2,2.1-9.2c0.9-3,2-6.1,3.5-9.2
				c1.6-3.2,3.7-6.5,6.4-10c2.6-3.4,5.5-6.6,8.8-9.4c3.2-2.8,6.6-5.2,10.1-7.1s7-2.8,10.3-2.8c3.1,0,6,0.8,8.7,2.5s4.8,4.5,6.4,8.6
				l-0.3-0.2c0.9,1.3,0.4,2.5-1.3,3.7c-1.9,1.1-3.3,1.4-4.2,1.1s-1.5-1-1.9-2.1c-1.8-3.9-3.5-5.8-5-5.8c-1.3,0-2.8,0.7-4.5,2.2
				c-1.7,1.4-3.5,3.2-5.3,5.4c-1.8,2.3-3.6,4.9-5.4,7.8c-1.8,3-3.4,6.1-4.9,9.4s-2.8,6.7-3.9,10.1c-1.1,3.4-1.9,6.7-2.3,9.8
				c-0.2,1.8-0.3,3.5-0.2,5.1s0.2,3.1,0.4,4.3c1.1,4.3,2.8,6.4,5.3,6.4c1.5,0,3.2-0.5,5.2-1.4c2-1,4-2.1,6-3.5
				c6.3-4.5,11.8-10.1,16.6-16.7c4.7-6.6,9.2-13.3,13.3-20.1c2.1-3.1,4.4-3.6,6.8-1.6l-0.3-0.2c1.6,1.2,2,2.4,1.3,3.7l-2.4,3.5h0.2
				c-4.4,6.8-8.8,13.2-13.3,19.4s-10,11.8-16.4,17c-2.9,2.1-6,3.9-9.2,5.3s-6.6,2.1-10.3,2.1c-2.5,0-4.9-0.5-7.2-1.4H761V341.4z"/>
			<path class="st1" d="M868,227.3c-0.2,3.2-1.3,7.1-3.1,11.6c-1.9,4.5-4.3,9.2-7.2,14.1s-6.1,9.7-9.6,14.4s-6.9,9-10.2,12.7
				c1.6-0.9,3.1-1.5,4.5-1.8c1.4-0.4,2.8-0.6,4.2-0.6c2.7,0,4.6,0.6,5.9,1.8c1.2,1.2,1.7,2.8,1.5,4.6c-0.2,1.2-0.8,2.5-1.8,4.1
				s-2.4,3.1-4.3,4.7c-2.1,1.8-4.6,3.5-7.4,5.1c-2.8,1.6-5.7,2.9-8.7,4.1c1.9,0.4,3.7,1.1,5.3,2.1s2.9,2.5,3.9,4.5
				c0.5,1.6,0.8,3.5,0.9,5.6c0.1,2.1-0.1,4.1-0.4,6c-0.1,0.5-0.2,1.1-0.3,1.7s-0.3,1.2-0.5,1.7c-0.2,0.9-0.4,1.7-0.6,2.4
				c-0.2,0.8-0.4,1.4-0.5,2.1c0-0.1,0.2-0.3,0.5-0.6c1.8-1.6,4.1-3.9,6.9-6.9c2.8-3,5.6-6.2,8.4-9.6c2.8-3.4,5.5-6.6,7.9-9.7
				s4.2-5.6,5.4-7.4c1.1-1.5,2.3-2.6,3.5-3.3c1.3-0.7,2.4-1,3.4-0.9s1.7,0.5,2.1,1.3c0.4,0.8,0.3,1.8-0.3,3.2
				c-0.6,1.2-1.8,2.9-3.5,5.2c-1.7,2.3-3.8,4.9-6.1,7.7c-2.4,2.8-4.9,5.8-7.6,8.8c-2.7,3-5.3,5.8-7.8,8.4s-4.9,4.8-7,6.7
				s-3.9,3.1-5.1,3.6c-1.2,0.4-2.4,0.8-3.5,1.1c-1.2,0.3-2.4,0.5-3.7,0.5c-2.5,0-4.5-0.6-6.2-1.9s-2.4-3.3-2.2-6.1
				c0.1-0.9,0.2-1.9,0.4-3.1s0.3-2.3,0.6-3.2c0.2-1.3,0.4-2.6,0.6-4c0.2-1.4,0.3-2.7,0.3-3.9s-0.2-2.3-0.5-3.2s-0.9-1.6-1.8-2
				l0.8,0.2c-0.2,0-0.4-0.1-0.5-0.2s-0.2-0.2-0.3-0.2H824c0.1,0,0.2,0,0.2,0.1s-0.2,0-0.5-0.1l-0.3,3.1c-0.3,2.4-0.6,4.8-0.8,7.2
				c-0.2,2.5-0.4,5-0.5,7.7c-1.1,1.9-2.4,3.3-3.9,4.1s-3,1.2-4.5,1.2c-2,0-3.8-0.6-5.2-1.8s-2.2-2.3-2.3-3.2l0.3,0.3
				c-0.2-1.2-0.3-2.9-0.2-5.3s0.2-4.2,0.3-5.6c0.4-3.9,1.3-8.5,2.7-14c1.3-5.5,3-11.2,5-17.3c2-6.1,4.2-12.2,6.7-18.6
				c2.5-6.3,5-12.3,7.7-18s5.4-10.8,8.2-15.4s5.5-8.3,8.2-10.9c1.8-1.5,3.8-2.7,6-3.6c2.1-0.9,4.2-1.4,6.3-1.4
				c3.1,0,5.7,0.9,7.9,2.6C867.2,221.3,868.2,223.9,868,227.3z M826.3,296.5c2.8-1.5,5.5-3.3,8.3-5.4c2.7-2.1,4.7-4.2,5.9-6.4v-0.2
				c-1,0.6-2.1,1.4-3.3,2.3s-2.5,1.8-3.8,2.7c-1.3,1-2.5,1.9-3.7,2.9s-2.2,1.8-3.1,2.6L826.3,296.5z M828.6,289.6v-0.2
				c-0.1,0-0.2,0.1-0.2,0.2v0.2L828.6,289.6z M853.2,232.6c-4.4,6-8.3,12.9-11.6,20.7s-6.2,15.5-8.7,23c2.8-3.3,5.6-7,8.5-11.2
				c2.9-4.1,5.6-8.3,8-12.6c2.5-4.3,4.6-8.4,6.3-12.5c1.7-4,2.8-7.6,3.2-10.7c0.3-2.3,0.6-3.4,1-3.5c-0.9,0.2-2,1.1-3.3,2.7
				s-2.4,2.9-3.3,4.1L853.2,232.6L853.2,232.6z M839.5,329.9c-0.1-0.1-0.2-0.3-0.2-0.5C839.3,329.7,839.4,329.9,839.5,329.9
				c0.2,1,0.3,1.4,0.3,1.3C839.8,331.2,839.7,330.8,839.5,329.9z"/>
			<path class="st1" d="M859.9,335.6c-1.6-3.4-1.9-7.8-1-13.2c0.3-1.2,0.8-2.9,1.4-5.2c0.6-2.3,1.3-4.8,2-7.4
				c0.8-2.6,1.5-5.2,2.3-7.8c0.8-2.6,1.4-4.8,1.9-6.6c0.3-1.2,0.7-2.4,1.1-3.5c0.4-1.2,0.8-2.4,1.1-3.5c0.9-2.9,1.6-5.2,2.1-6.9
				c0.5-1.7,0.7-2.9,0.5-3.7l0.6,0.3c-0.5-0.5-0.7-1.3-0.5-2.2c0.2-0.9,1-1.7,2.3-2.3c1.2-0.4,2.7-0.5,4.4-0.3
				c1.8,0.2,3.5,0.7,5.1,1.4c1.6,0.7,2.9,1.6,3.9,2.8c1,1.2,1.4,2.6,1.2,4.2c-0.4,3.1-1.3,6.6-2.5,10.5s-2.6,7.8-4.1,11.9
				c-1.3,3.2-2.4,6.4-3.5,9.4c-1,3.1-1.8,6.2-2.5,9.6c-0.6,2.9-0.9,5-0.9,6.4c0.1,1.3,0.2,2.4,0.6,3.1c0,0.3,0.2,0.5,0.6,0.5
				c0.4,0,0.8-0.1,1.2-0.3s0.9-0.5,1.4-0.8s0.8-0.6,1-0.8c2-1.7,4.2-4.1,6.5-7.1s4.5-6.1,6.7-9.4c2.1-3.3,4.2-6.5,6.1-9.6
				c1.9-3.1,3.5-5.7,4.7-7.7l1.9-3.1h-0.2c0.5-1.3,1.4-2,2.7-2.2s2.6,0.2,4,1.2c1.2,1.1,1.4,2.2,0.6,3.4c-0.4,0.4-1.2,1.7-2.3,3.9
				c-1.3,2.1-2.9,4.8-4.8,7.9c-1.9,3.1-4,6.3-6.2,9.5s-4.5,6.3-6.8,9.2s-4.6,5.3-6.8,7.1c-2,1.7-4.6,3.4-7.6,4.9
				c-3.1,1.6-6.1,2.3-9.1,2.3c-2.1,0-4-0.4-5.6-1.2C862,339.2,860.8,337.7,859.9,335.6z M884.1,257.4c2.5,0.5,4.4,1.7,6,3.4
				c1.5,1.7,2.1,3.5,1.9,5.3c-0.4,2.4-1.6,4.1-3.6,5.3c-2,1.2-4.4,1.4-7.2,0.8c-2.5-0.5-4.4-1.7-5.8-3.4c-1.4-1.7-2-3.5-1.8-5.3
				c0.2-2.3,1.3-4,3.3-5.1C878.9,257.2,881.3,256.9,884.1,257.4z"/>
			<path class="st1" d="M912,282.8c3.3-1.3,6.1-1.3,8.4,0c2.3,1.3,3.3,4.1,3.2,8.4c-0.2,0.9-0.7,2.6-1.4,5.1
				c-0.8,2.6-1.6,5.5-2.6,8.7c-1.1,2.9-2.5,6.5-4.2,10.8s-3.9,8.7-6.4,13.2c1.5-2.4,3-5,4.5-7.9s3.1-5.9,4.8-9
				c3.1-5.6,6.3-11.2,9.6-16.9c3.3-5.7,6.4-10.3,9.4-13.8c2.6-3,5.5-4.5,8.8-4.5c1.6,0,3.1,0.5,4.3,1.6c1.3,1.1,2.3,2.4,3.1,4.1
				s1.3,3.5,1.5,5.5s0.1,3.9-0.5,5.9c-0.9,2.8-1.9,5.6-3.1,8.5s-2.5,5.9-3.9,9c-1.5,3.1-2.9,6.2-4.2,9.4c-1.3,3.2-2.4,6.5-3.2,9.9
				c-0.2,1,0.1,1.2,1,0.6c0.9-0.5,1.9-1.4,3.1-2.5s2.3-2.3,3.4-3.4c1.1-1.1,1.7-1.8,1.9-2c3.9-4.3,7.7-9.1,11.6-14.4
				s7.1-10.1,9.7-14.4l0.3-0.5c0.4-0.9,1.3-1.4,2.5-1.8c1.2-0.3,2.5-0.3,3.8,0c0.9,0.8,1.4,1.3,1.6,1.8c0.2,0.4,0.2,0.9,0,1.4
				c-1.2,2-2.6,4.3-4.3,6.9s-3.6,5.2-5.5,8c-2,2.7-4.1,5.5-6.3,8.2s-4.4,5.3-6.5,7.6c-1.1,1.2-2.4,2.6-4,4.2s-3.4,3.2-5.4,4.7
				s-4.1,2.8-6.4,3.9c-2.3,1.1-4.6,1.6-7,1.6c-3,0-5.3-0.7-6.9-2.3h0.2c-1.2-1-1.9-2.1-2.2-3.3s-0.3-2.6-0.1-4.1
				c0.3-2.7,1.2-5.9,2.6-9.7c1.4-3.8,3-7.7,4.8-11.8c1.2-3.1,2.4-6.2,3.5-9.2c1.2-3,2.1-5.8,2.9-8.4c-1.9,3.1-4.1,6.8-6.5,11.1
				c-2.4,4.3-4.7,8.6-7,13c-1.8,3.5-3.6,6.9-5.4,10c-1.8,3.1-3.4,5.8-4.7,8c-1.6,2.5-3.5,4.4-5.7,5.7s-4.4,2-6.5,2s-3.9-0.6-5.3-1.8
				c-1.4-1.2-2-3.1-1.9-5.5c-0.1-1.1-0.1-2.2-0.1-3.4c0.1-1.2,0.2-2.3,0.4-3.4c0.5-3.4,1.3-6.9,2.3-10.3s2.1-6.8,3.3-10.1
				c0.9-2.6,1.7-5.2,2.6-7.8c0.9-2.6,1.5-5.2,1.9-7.8c0.3-1.5,0.8-3.1,1.5-4.7C907.8,285.2,909.5,283.9,912,282.8z M940.5,288.3
				l-0.3,0.6L940.5,288.3z"/>
			<path class="st1" d="M991.8,314.2c1.3-1.8,2.5-3.6,3.7-5.3s2.6-3.4,4.2-5c2.6-2.6,5.1-3.9,7.6-3.9s4.2,1.2,5.1,3.5
				c1,2.4,1.3,4.9,1.1,7.7c-0.1,1.2-0.2,2.3-0.4,3.4s-0.3,2.3-0.6,3.7c3.8-3.5,7.3-7.3,10.6-11.2c3.3-3.9,6.5-8.3,9.7-13.3
				c1.3-1.9,3.7-2.1,7.2-0.6c0.9,0.5,1.1,1.2,0.8,2.1c-4.3,6.8-9.1,12.9-14.5,18.5s-10.8,10.8-16.4,15.8c-1.5,5.7-3.4,11.7-5.6,18
				c-2.3,6.3-4.7,12.4-7.4,18.1s-5.5,10.9-8.4,15.4c-3,4.6-5.8,7.9-8.4,9.9c-3.3,2.6-6.8,3.9-10.5,3.9c-3.3,0-6-1.2-8-3.7
				s-3-5.8-2.9-10.1c0.1-4.2,1.1-8.1,3-11.8s4.3-7.3,7.3-10.9s6.5-7.2,10.4-10.8s8.1-7.3,12.5-11l-1.1,0.8c0.7-2.5,1.4-4.8,2-6.9
				s1.1-4.3,1.5-6.4c-1.3,1.9-2.7,3.8-4.2,5.7s-3.1,3.6-4.9,5.1s-3.7,2.8-5.9,3.9c-2.1,1.1-4.5,1.8-6.9,2.1c-3.1,0.4-5.6,0.1-7.5-1
				s-3.3-2.6-4.3-4.5s-1.5-4.2-1.6-6.8s0-5.3,0.3-8c0.4-2.8,1-5.5,1.8-8.1s1.6-4.9,2.4-6.7c0.9-1.8,1.9-3.7,3.2-5.7s2.7-4,4.3-6
				c1.3-1.4,2.6-2.7,4-3.9c1.4-1.2,3.1-2.6,5.1-4.1h-0.2c1.7-1.3,3.6-2.2,5.7-2.7s4.3-0.8,6.5-0.8c2.3,0,4.4,0.3,6.4,0.9
				s3.6,1.5,4.9,2.7s2.1,2.8,2.5,4.6c0.4,1.8,0.1,3.9-0.9,6.3l0.2-0.2c-0.8,1.9-2.6,2.6-5.5,2.1c-2.5-0.6-3.5-1.3-3.2-2.1
				c1-2.1,1.3-3.8,1-4.9s-0.9-1.7-1.8-1.7c-1.2,0-2.4,0.4-3.5,1.1c-3.1,1.8-5.9,4.6-8.4,8.3c-2.5,3.7-4.5,7.7-6,12h0.2
				c-1.7,4.7-2.8,9.2-3.4,13.5c-0.4,4-0.2,6.4,0.8,7.4c0.4,0.9,1.3,0.8,2.5-0.2s2.6-2.4,4-4.2s2.9-3.7,4.3-5.7s2.5-3.7,3.4-5v0.2
				l1.3-1.9L991.8,314.2z M967.9,385.3c1.8-1.9,3.6-4.3,5.3-7s3.4-5.7,5-8.9s3.1-6.5,4.5-10c1.4-3.4,2.7-6.7,3.9-9.8
				c-5.4,5-9.9,10.1-13.5,15c-3.6,5-5.6,10.2-5.8,15.7c0.1,1.2,0.2,2.3,0.2,3.3S967.6,385.2,967.9,385.3z M994.7,342.6
				c-1.5,1.2-2.9,2.3-4.2,3.5c-1.3,1.1-2.6,2.3-3.9,3.5l2.9-8.4L994.7,342.6z"/>
		</g>
	</g>
	<path class="st7" d="M238.2,86.5c0,0,16.2,2.1,13.7,22.8c-2.5,20.8-1.2,49.4,34,70.2c0,0,13.3,6.2,12.5,15.8c0,0,22-5.8,63.9,0
		c0,0,22.4-22.8,36.9-23.7L294.7,28.4l-53.1,10.4l-11.6,27L238.2,86.5z"/>
	<path class="st8" d="M385.8,157.3c0,0,6.6,24.1,42.8,73.3c0,0,4.4,6.8,11.4-1.7c0,0,3.9-8.5,16-11c0,0,12.2-4.8,4.8-10.6
		c0,0-33.8-30.9-56-47.9L385.8,157.3z"/>
	<path class="st9" d="M260.8,38.2c0,0,45.1-8,34.9,44.6l83.3,60.9l11.9-18.5c0,0-11.9-34-37.4-51.2c0,0-10.8-7.2-16.9-23
		c0,0-8.9-32.1-40.1-35.7L260.8,38.2z"/>
	<path class="st8" d="M235.7,75.3c0,0-8.6-33,29.1-34.6c0,0,22.4,1.4,30-10.1c0,0,8.7-13.6,8.2-29.6c0,0-3.1,7.1-34.3,10
		c-31.3,2.9-50.8,34.9-42.5,56.5C226.2,67.4,227.4,76.2,235.7,75.3z"/>
	<path class="st10" d="M453.1,148.3c0,0-39.3-5-123.4-61.7c0,0-22.6-16.3-37.4-3.6c0,0-14.9,12.5,2.8,42.1c0,0,17.4,34,54.5,43.5
		c0,0,6.5,1-2.8-9.4c0,0,22.4,17.2,39,9.4c0,0,4.7-3-7.2-8.9c0,0,28.6,6.6,37.6,3.3c0,0,5.5-2.6-4.4-6.4c0,0-4.2-1.4-5.8-4.2
		C406.1,152.4,450.1,156.9,453.1,148.3z"/>
	<path class="st11" d="M395.8,126.1c0,0,31,16.5,57.3,22.2c0,0,1.9,8.8-47,4.2c0,0,1.6,2.4,6.6,4.5c0,0,6.6,1.7,5.6,4.7
		c0,0-0.9,7-39.2-1.9c0,0,10.7,5.2,7.1,8.4c0,0-11.4,10.2-38.9-8.7c0,0,9.5,8.9,2.3,9c-0.9,0.1-28.9,0.5-54.3-43
		C295.3,125.5,345.4,167.3,395.8,126.1z"/>
	<path class="st12" d="M289.9,115c0,0,39.4,34.1,88.2,1.7l4.4,2.5C382.5,119.1,333.9,154.4,289.9,115z"/>
	<path class="st12" d="M395.8,126.1l-3.9-2c0,0-44.9,39.4-96.8,1C295.1,125.1,341.9,168.7,395.8,126.1z"/>
	<path class="st13" d="M213.4,86.8l13-18.8c0,0,1.9,9.1,14.9,7.3c0,0-8.4,4.7-2.9,11.5H213.4z"/>
	<path class="st14" d="M239.5,86.8h-26l28-11.5C241.4,75.3,234.4,79.6,239.5,86.8z"/>
	<circle class="st15" cx="255.8" cy="64.3" r="8.6"/>
	<ellipse transform="matrix(0.4473 -0.8944 0.8944 0.4473 85.8988 262.227)" class="st16" cx="255.1" cy="61.6" rx="2.2" ry="2.2"/>
	<path class="st16" d="M255.9,60c0,0,3.5-0.8,5.2,3.9c0,0,0.1-6.8-5.9-6.8c0,0-4.4-0.4-6.1,4.8C249,61.9,252,59.2,255.9,60z"/>
	<path class="st17" d="M303.3,194.2c0,0-2.4-2.4-4.6,0L287.2,213h-19c0,0-4.3,0.1-4.6,1.9h25.9c0,0,0.7-0.4-0.4-1.8L303.3,194.2z"/>
	<path class="st17" d="M363.1,194.2c0,0-2.4-2.4-4.6,0L347,213h-19c0,0-4.3,0.1-4.6,1.9h25.9c0,0,0.7-0.4-0.4-1.8L363.1,194.2z"/>
</g>
</svg>
