<?xml version="1.0" encoding="utf-8"?>
<!-- Generator: Adobe Illustrator 22.1.0, SVG Export Plug-In . SVG Version: 6.00 Build 0)  -->
<svg version="1.1" id="Calque_1" xmlns="http://www.w3.org/2000/svg" xmlns:xlink="http://www.w3.org/1999/xlink" x="0px" y="0px"
	 viewBox="0 0 1190.6 841.9" style="enable-background:new 0 0 1190.6 841.9;" xml:space="preserve">
<style type="text/css">
	.st0{fill:#AF9F87;}
	.st1{fill:#FFB646;}
	.st2{fill:#FFE781;}
	.st3{fill:#9AB5B1;}
	.st4{fill:#BAD8D3;}
	.st5{fill:#FCFBDB;}
	.st6{font-family:'Belindascript-script';}
	.st7{font-size:160.8324px;}
	.st8{fill:#F3E4D2;}
	.st9{fill:#128784;}
	.st10{fill:#32B2B1;}
	.st11{fill:#D7AB68;}
	.st12{fill:#0D5E5A;}
	.st13{fill:#EBFFFF;}
	.st14{fill:#727475;}
	.st15{fill:#515556;}
	.st16{fill:#181919;}
	.st17{fill:#FCFCFC;}
	.st18{fill:#777574;}
</style>
<path class="st0" d="M366,432.8c0,0-19.6,7.5-172.7-13.6l-10.6-0.3c0,0-30.6,23.3-72.1,35.1c0,0-3.4-0.1-4.9-2.3
	c0,0,50.8-22.1,66.5-38.1c0,0-39.2-15.3-58.2-17.2l4.8-5.1c0,0,20.4,1.4,35.4,4.1c0,0,155.4,31.6,190.9,26.3c0,0,73.8-3,172.5,2.5
	c5.8,0.3,17.9,9.9,7.6,11.9C518.5,437.2,408.1,426.1,366,432.8z"/>
<path class="st0" d="M156.4,432.6c0,0-1,16.2-19.9,36c0,0,0.9,1.6,7.5,0.2c0,0,21.5-28.8,24-43.4L156.4,432.6z"/>
<ellipse transform="matrix(2.605566e-02 -0.9997 0.9997 2.605566e-02 -275.0335 486.7697)" class="st1" cx="112.3" cy="384.5" rx="7.2" ry="7.2"/>
<ellipse transform="matrix(2.605566e-02 -0.9997 0.9997 2.605566e-02 -266.2426 499.6868)" class="st1" cx="123.3" cy="386.5" rx="6.8" ry="6.1"/>
<circle class="st1" cx="124.9" cy="398.8" r="7.3"/>
<circle class="st1" cx="103.4" cy="394.3" r="7.4"/>
<circle class="st1" cx="112.7" cy="402.5" r="7"/>
<ellipse transform="matrix(0.6026 -0.798 0.798 0.6026 -318.1531 297.5457)" class="st1" cx="139.7" cy="468.2" rx="8.6" ry="8.6"/>
<ellipse transform="matrix(0.6026 -0.798 0.798 0.6026 -321.5362 308.045)" class="st1" cx="148.5" cy="476.9" rx="8.2" ry="7.3"/>
<circle class="st1" cx="141.4" cy="490" r="8.8"/>
<circle class="st1" cx="124.3" cy="471.5" r="8.9"/>
<circle class="st1" cx="127.6" cy="486" r="8.4"/>
<circle class="st2" cx="117.1" cy="393.1" r="6.2"/>
<circle class="st2" cx="136.4" cy="479.3" r="8.1"/>
<ellipse transform="matrix(2.605566e-02 -0.9997 0.9997 2.605566e-02 -164.2272 607.0807)" class="st3" cx="229.4" cy="387.8" rx="39.2" ry="90.9"/>
<path class="st3" d="M268.9,422.3c0,0,21.6,6.2,42-3.1c0,0,13.3-8.5,6.5-25.8C317.4,393.5,317.3,416.7,268.9,422.3z"/>
<path class="st3" d="M143.1,377.2c0,0-10.5,7.5-11.4,14.4c0,0-0.7,1.3,1.4,1.7c0,0-0.3-5.3,11.4-13.9L143.1,377.2z"/>
<path class="st3" d="M143.2,375.9c0,0-1.9-6.3,9.5-13.2c0,0,1.9-1.7,3.5-7.6c0,0,1.6-1.5,2.3,0.1c0,0-1.1,9-3.7,11.1L143.2,375.9z"
	/>
<path class="st3" d="M160.1,363.6c0,0,4.9-16.7,19.3-9.5L160.1,363.6z"/>
<path class="st3" d="M182.2,352.5c0,0,5.6-8.9,11.9-1.6L182.2,352.5z"/>
<path class="st4" d="M150.4,384.4c0,0,1,6.8,12.7,15.6C163.1,400,145.7,394.4,150.4,384.4z"/>
<path class="st4" d="M180.9,400.5c0,0,22.5,6.7,54.1,8C235.1,408.4,201.2,415,180.9,400.5z"/>
<path class="st4" d="M231.5,420.3c0,0,36.3,0.7,56-8.5C287.5,411.8,273.7,426.5,231.5,420.3z"/>
<path class="st4" d="M202.7,401c0,0-38.5-6.2-42.7-23.4c0,0-1.1-2.6,1.2-2.8c0,0,1.6,0,2.5,2.9C163.7,377.7,170.3,393.6,202.7,401z"
	/>
<path class="st4" d="M202.4,412.7c0,0,45.8,5.9,69.1-1.4C271.5,411.4,256.2,424,202.4,412.7z"/>
<path class="st4" d="M216.2,421c0,0-38.6-2.8-55.8-17.8C160.5,403.2,166.7,421.2,216.2,421z"/>
<path class="st4" d="M252.7,405.6c0,0,39.8-6.5,48.2-17.2c0,0,2.6,6.9-5,10.6C296,399,288.1,406.5,252.7,405.6z"/>
<path class="st4" d="M282.5,421.4c0,0,24.7-3.6,32.7-14.1C315.2,407.2,310.9,423.4,282.5,421.4z"/>
<path class="st4" d="M155.5,378.5c0,0-0.6,5.1,9.9,12.7C165.4,391.1,156.5,392.8,155.5,378.5z"/>
<path class="st4" d="M149.4,395.2c0,0,6.2,13.5,15.4,16.3C164.9,411.5,152.7,413.1,149.4,395.2z"/>
<path class="st4" d="M300.7,378.5c0,0,13.5,7.5,10.7,20.9C311.4,399.4,320.2,385.1,300.7,378.5z"/>
<path class="st4" d="M192.3,368.4c0,0,60.2-2.4,74.8,1.9l-3.2-5.2c0,0-56.6-5-74.3,0.6L192.3,368.4z"/>
<path class="st4" d="M189.7,361.1c1.4,0,14.4-2.9,35.6-1.2c0,0-24-4.4-35.5-2.6L189.7,361.1z"/>
<path class="st4" d="M276.7,364.5c0,0-16.8-4.6-28.8-4c0,0,21.9-1.1,27.5,0.6L276.7,364.5z"/>
<path class="st4" d="M160,366.4c0,0,11.3-10.4,19.3-10l-4.6,6.4C174.7,362.8,168.7,362.2,160,366.4z"/>
<path class="st5" d="M166,377.3c0,0,11.5,14.4,35.5,17.8c0,0,12.6-16-1.9-34.1c0,0-17.5-22.6-30.6-0.8
	C168.9,360.2,165,367.6,166,377.3z"/>
<path class="st5" d="M208.3,397.4c0,0-6.1-19.2,7.5-34.8c0,0,14-14.9,24.9,4.4c0,0,9.5,20.9,1.6,33.5
	C242.2,400.5,224,404.7,208.3,397.4z"/>
<path class="st5" d="M251.6,399.8c0,0-11.8-15.6,3.7-32.7c0,0,18-18.6,27.2-2.1c0,0,6.8,13.3,1.7,28.8
	C284.3,393.8,266.6,401.1,251.6,399.8z"/>
<path class="st0" d="M307.1,425.4c0,0,19.9,22.6,45.9,37.1c0,0,3.9,1.8,6.1-3.2c0,0-30.6-16.1-35.4-34H307.1z"/>
<ellipse transform="matrix(0.4114 -0.9115 0.9115 0.4114 -223.7665 548.2007)" class="st1" cx="312.6" cy="447.4" rx="6.2" ry="6.2"/>
<ellipse transform="matrix(0.4114 -0.9115 0.9115 0.4114 -223.9835 538.5397)" class="st1" cx="305" cy="442.7" rx="5.9" ry="5.2"/>
<circle class="st1" cx="307.9" cy="432.3" r="6.3"/>
<circle class="st1" cx="322.9" cy="442.6" r="6.4"/>
<circle class="st1" cx="318.2" cy="432.9" r="6"/>
<ellipse transform="matrix(0.6596 -0.7516 0.7516 0.6596 -224.5524 427.9618)" class="st1" cx="360.2" cy="461.9" rx="7.2" ry="7.2"/>
<ellipse transform="matrix(0.6596 -0.7516 0.7516 0.6596 -232.3093 424.479)" class="st1" cx="352.5" cy="468.7" rx="6.1" ry="6.8"/>
<circle class="st1" cx="342" cy="462" r="7.3"/>
<circle class="st1" cx="358.4" cy="448.9" r="7.4"/>
<circle class="st1" cx="346.2" cy="450.8" r="7"/>
<circle class="st2" cx="351" cy="458.3" r="7.5"/>
<circle class="st2" cx="313.1" cy="438.4" r="5.4"/>
<g>
	<text transform="matrix(1 0 0 1 431.9756 548.8984)" class="st0 st6 st7">Nestracking</text>
</g>
<path class="st8" d="M330.2,292.6c0,0,16.2,2.1,13.7,22.8c-2.5,20.8-1.2,49.4,34,70.2c0,0,13.3,6.2,12.5,15.8c0,0,22-5.8,63.9,0
	c0,0,22.4-22.8,36.9-23.7L386.7,234.5l-53.1,10.4l-11.6,27L330.2,292.6z"/>
<path class="st9" d="M477.8,363.4c0,0,6.6,24.1,42.8,73.3c0,0,4.4,6.8,11.4-1.7c0,0,3.9-8.5,16-11c0,0,12.2-4.8,4.8-10.6
	c0,0-33.8-30.9-56-47.9L477.8,363.4z"/>
<path class="st10" d="M352.8,244.3c0,0,45.1-8,34.9,44.6l83.3,60.9l11.9-18.5c0,0-11.9-34-37.4-51.2c0,0-10.8-7.2-16.9-23
	c0,0-8.9-32.1-40.1-35.7L352.8,244.3z"/>
<path class="st9" d="M327.7,281.4c0,0-8.6-33,29.1-34.6c0,0,22.4,1.4,30-10.1c0,0,8.7-13.6,8.2-29.6c0,0-3.1,7.1-34.3,10
	c-31.3,2.9-50.8,34.9-42.5,56.5C318.2,273.5,319.4,282.3,327.7,281.4z"/>
<path class="st11" d="M545.1,354.4c0,0-39.3-5-123.4-61.7c0,0-22.6-16.3-37.4-3.6c0,0-14.9,12.5,2.8,42.1c0,0,17.4,34,54.5,43.5
	c0,0,6.5,1-2.8-9.4c0,0,22.4,17.2,39,9.4c0,0,4.7-3-7.2-8.9c0,0,28.6,6.6,37.6,3.3c0,0,5.5-2.6-4.4-6.4c0,0-4.2-1.4-5.8-4.2
	C498.1,358.5,542.1,363,545.1,354.4z"/>
<path class="st12" d="M487.8,332.2c0,0,31,16.5,57.3,22.2c0,0,1.9,8.8-47,4.2c0,0,1.6,2.4,6.6,4.5c0,0,6.6,1.7,5.6,4.7
	c0,0-0.9,7-39.2-1.9c0,0,10.7,5.2,7.1,8.4c0,0-11.4,10.2-38.9-8.7c0,0,9.5,8.9,2.3,9c-0.9,0.1-28.9,0.5-54.3-43
	C387.3,331.6,437.4,373.4,487.8,332.2z"/>
<path class="st13" d="M381.9,321.1c0,0,39.4,34.1,88.2,1.7l4.4,2.5C474.5,325.2,425.9,360.5,381.9,321.1z"/>
<path class="st13" d="M487.8,332.2l-3.9-2c0,0-44.9,39.4-96.8,1C387.1,331.2,433.9,374.8,487.8,332.2z"/>
<path class="st14" d="M305.4,292.9l13-18.8c0,0,1.9,9.1,14.9,7.3c0,0-8.4,4.7-2.9,11.5H305.4z"/>
<path class="st15" d="M331.5,292.9h-26l28-11.5C333.4,281.4,326.4,285.7,331.5,292.9z"/>
<circle class="st16" cx="347.8" cy="270.4" r="8.6"/>
<circle class="st17" cx="347.1" cy="267.7" r="2.2"/>
<path class="st17" d="M347.9,266.1c0,0,3.5-0.8,5.2,3.9c0,0,0.1-6.8-5.9-6.8c0,0-4.4-0.4-6.1,4.8C341,268,344,265.3,347.9,266.1z"/>
<path class="st18" d="M395.3,400.3c0,0-2.4-2.4-4.6,0l-11.5,18.8h-19c0,0-4.3,0.1-4.6,1.9h25.9c0,0,0.7-0.4-0.4-1.8L395.3,400.3z"/>
<path class="st18" d="M455.1,400.3c0,0-2.4-2.4-4.6,0L439,419.1h-19c0,0-4.3,0.1-4.6,1.9h25.9c0,0,0.7-0.4-0.4-1.8L455.1,400.3z"/>
</svg>
